<svg xmlns="http://www.w3.org/2000/svg" xmlns:xlink="http://www.w3.org/1999/xlink" width="1524" height="1042.1"><g transform="translate(-111 -87.90000000000002)"><g filter="url(#a)"><path d="M680 919.54v-547.5h42v547.5z" fill="#fff"/><path d="M701 919.54v-547.5h21v547.5z" fill="#fff"/><path d="M1031.25 919.54H680v-547.5h351.25zM722 919.54v-547.5" stroke="#333" stroke-width="2" fill="none"/><g><use xlink:href="#b" transform="matrix(6.123233995736766e-17,-1,1,6.123233995736766e-17,680,919.5357142857144) translate(177.51851851851853 25.444444444444443)"/><use xlink:href="#c" transform="matrix(6.123233995736766e-17,-1,1,6.123233995736766e-17,680,919.5357142857144) translate(309.30864197530866 25.444444444444443)"/></g></g><g filter="url(#d)"><path d="M175 185h1440v42H175z" fill="#fff"/><path d="M175 206h1440v21H175z" fill="#fff"/><path d="M175 1110V185h1440v925zM175 227h1440M370 185v925m290-925v925m420-925v925m275-925v925" stroke="#333" stroke-width="2" fill="none"/><use xlink:href="#e" transform="matrix(1,0,0,1,175,185) translate(53.73456790123457 25.444444444444443)"/><use xlink:href="#f" transform="matrix(1,0,0,1,369.99999999999994,185) translate(112.29012345679013 25.444444444444443)"/><use xlink:href="#g" transform="matrix(1,0,0,1,660,185) translate(166.820987654321 25.444444444444443)"/><use xlink:href="#h" transform="matrix(1,0,0,1,1080,185) translate(95.06172839506172 25.444444444444443)"/><use xlink:href="#i" transform="matrix(1,0,0,1,1354.9999999999995,185) translate(75.18518518518519 25.444444444444443)"/></g><g filter="url(#j)"><path d="M443.2 310.4h164.84l-41.2 83.6H402z" stroke="#333" stroke-width="2" fill="#fff"/><use xlink:href="#k" transform="matrix(1,0,0,1,402.00000000000665,310.4) translate(60.214876543209876 33.52777777777778)"/><use xlink:href="#l" transform="matrix(1,0,0,1,402.00000000000665,310.4) translate(60.26425925925926 60.19444444444445)"/></g><g filter="url(#j)"><path d="M443.2 460H608l-41.2 83.6H401.97z" stroke="#333" stroke-width="2" fill="#fff"/><use xlink:href="#m" transform="matrix(1,0,0,1,401.9791666666767,460) translate(41.40006172839507 46.65277777777778)"/><use xlink:href="#l" transform="matrix(1,0,0,1,401.9791666666767,460) translate(93.12845679012347 46.65277777777778)"/></g><g filter="url(#n)"><path d="M753.12 491.36h250v50h-250z" stroke="#333" stroke-width="2" fill="#fff"/><use xlink:href="#o" transform="matrix(1,0,0,1,753.1249999999877,491.35714285714266) translate(25.18518518518519 30.27777777777778)"/><use xlink:href="#p" transform="matrix(1,0,0,1,753.1249999999877,491.35714285714266) translate(95.49382716049382 30.27777777777778)"/><use xlink:href="#q" transform="matrix(1,0,0,1,753.1249999999877,491.35714285714266) translate(171.7901234567901 30.27777777777778)"/></g><g filter="url(#n)"><path d="M752.25 594.77h250v50h-250z" stroke="#333" stroke-width="2" fill="#fff"/><use xlink:href="#r" transform="matrix(1,0,0,1,752.2499999999877,594.7738095238092) translate(38.765432098765416 30.27777777777778)"/><use xlink:href="#s" transform="matrix(1,0,0,1,752.2499999999877,594.7738095238092) translate(166.9135802469136 30.27777777777778)"/></g><g filter="url(#t)"><path d="M918 243c14.9 0 27 15.35 27 34.3 0 18.92-12.1 34.27-27 34.27h-81c-14.9 0-27-15.35-27-34.28 0-18.95 12.1-34.3 27-34.3z" stroke="#333" stroke-width="2" fill="#fff"/><use xlink:href="#u" transform="matrix(1,0,0,1,810.0000000000124,243) translate(67.505 17.77777777777778)"/><use xlink:href="#v" transform="matrix(1,0,0,1,810.0000000000124,243) translate(44.07907407407408 44.44444444444444)"/></g><g filter="url(#n)"><path d="M753 706.36h250v50H753z" stroke="#333" stroke-width="2" fill="#fff"/><use xlink:href="#w" transform="matrix(1,0,0,1,752.9999999999877,706.3571428571427) translate(35.61728395061728 30.27777777777778)"/><use xlink:href="#x" transform="matrix(1,0,0,1,752.9999999999877,706.3571428571427) translate(118.20987654320987 30.27777777777778)"/></g><g filter="url(#t)"><path d="M918 980c14.9 0 27 15.35 27 34.3 0 18.92-12.1 34.27-27 34.27h-81c-14.9 0-27-15.35-27-34.28 0-18.95 12.1-34.3 27-34.3z" stroke="#333" stroke-width="2" fill="#fff"/><use xlink:href="#u" transform="matrix(1,0,0,1,810.0000000000124,980) translate(67.505 17.77777777777778)"/><use xlink:href="#y" transform="matrix(1,0,0,1,810.0000000000124,980) translate(47.751913580246914 44.44444444444444)"/></g><g filter="url(#t)"><path d="M1533.5 430c14.9 0 27 15.35 27 34.3 0 18.92-12.1 34.27-27 34.27h-81c-14.9 0-27-15.35-27-34.28 0-18.95 12.1-34.3 27-34.3z" stroke="#333" stroke-width="2" fill="#fff"/><use xlink:href="#z" transform="matrix(1,0,0,1,1425.5,430) translate(25.622283950617287 39.34027777777778)"/></g><path d="M587.44 352.2l3.92 1.82 3.72 1.54 3.55 1.3 3.4 1.08 3.3.9 3.2.72 3.1.58 3.06.43 3 .3 3 .17 3 .05 3-.1 3.03-.2 3.07-.35 3.15-.48 3.23-.64 3.36-.8 3.52-1.02 3.72-1.22 4-1.5 4.34-1.87 4.83-2.3 5.56-2.96 6.72-3.94 9.07-5.85 53.95-37.67 8.1-4.75 6.96-3.7 6.25-2.98 5.76-2.46 5.42-2.07 5.16-1.7 4.98-1.43 4.86-1.17 4.76-.94 4.7-.74 4.7-.52 4.7-.32 4.73-.13h.7" stroke="#000" stroke-width="2" fill="none"/><path d="M587.07 353.13l-.08-.03.45-.93zM810 277.3l-13.93 5.56-.6-9.25z"/><path d="M810.07 276.27l-.07 1.02.06 1.04-14.9 5.96-.8-12zm-13.1 5.15l9.8-3.92-10.22-2.58z"/><path d="M587.42 501.8l3.54 1.64 3.25 1.35 3 1.08 2.77.88 2.6.7 2.43.57 2.3.42 2.2.3 2.08.22 2 .1 1.94.04 1.87-.04 1.82-.12 1.78-.2 1.74-.27 1.72-.34 1.7-.4 1.7-.5 1.67-.55 1.7-.64 1.68-.72 1.72-.82 1.73-.92 1.77-1.03 1.8-1.16 1.86-1.32 1.9-1.47 2-1.66 2.1-1.9 2.18-2.18 2.33-2.5 2.48-2.94 2.7-3.45 2.97-4.14 3.32-5.07 3.8-6.4 4.6-8.47 5.98-12.3 10.78-24.87 25.2-60 7.2-14.8 5.8-10.68 4.98-8.37 4.5-6.84 4.1-5.73 3.82-4.88 3.6-4.24 3.44-3.7 3.3-3.26 3.17-2.9 3.08-2.58 3.02-2.32 2.95-2.07 2.9-1.88 2.9-1.68 2.85-1.53 2.85-1.36 2.86-1.22 2.88-1.1 2.92-.95 2.95-.84 3-.74 3.07-.6 3.15-.5 3.23-.35 3.36-.22 3.48-.1h.52" stroke="#000" stroke-width="2" fill="none"/><path d="M587.06 502.74l-.1-.04.47-.94zM810 277.3l-13.77 5.93-.87-9.23z"/><path d="M810.07 276.28l-.07 1 .06 1.07-14.7 6.35-1.12-11.97zm-12.97 5.5l9.68-4.2-10.3-2.3z"/><path d="M330 410l3.05.08 2.77.23 2.56.35 2.38.46 2.24.56 2.13.65 2.03.76 1.96.84 1.9.94 1.9 1.06 1.85 1.18 1.86 1.33 1.88 1.52 1.94 1.73 2 2 2.13 2.36 2.32 2.88 2.63 3.66 3.28 5.12 5.7 10.08 12.33 22.63 3.92 6.1 3.3 4.6 3.04 3.74 2.85 3.2 2.8 2.77 2.74 2.46 2.74 2.2 2.8 2 2.84 1.82 2.94 1.66 1.76.9" stroke="#000" stroke-width="2" fill="none"/><path d="M330.15 409l-.15 1v-1zM422.58 501.8l-14.5-3.87 5.05-7.78z"/><path d="M423.07 500.8l-.94 1.9-15.63-4.16 6.54-10.1zm-13.4-3.48l10.2 2.72-6.65-8.2z"/><path d="M330 410l1.97-.05 1.92-.16 1.86-.26 1.84-.36 1.83-.45 1.84-.56 1.85-.68 1.88-.82 1.94-.95 2-1.14 2.1-1.35 2.26-1.6 2.45-1.97 2.72-2.44 3.17-3.16 4-4.45 7-8.73 12.83-16.5 3.35-3.72 2.53-2.53 2.1-1.87 1.82-1.47 1.63-1.16 1.5-.95 1.4-.8 1.3-.65 1.27-.53 1.2-.45 1.2-.36 1.15-.28 1.15-.22 1.14-.15 1.17-.1 1.17-.03 1.2.03 1.22.1 1.27.18 1.34.25 1.4.35 1.5.46 1.6.58 1.75.75.78.37" stroke="#000" stroke-width="2" fill="none"/><path d="M330.2 410.98l-.2.04V410zM422.6 352.2l-14.9 1.7 1.84-9.08z"/><path d="M423.05 351.3l-.97 1.97-15.63 1.8 2.4-11.8zm-14.1 1.46l10.48-1.2-9.18-5.2z"/><path d="M877.5 311.57l1.12 80.47" stroke="#000" stroke-width="2" fill="none"/><path d="M876.5 311.6v-.03h1.1zM878.63 392.04l-4.84-14.2 9.26-.13z"/><path d="M879.67 392.04h-2.1l-5.17-15.18 12.02-.17zm-4.5-13.22l3.4 9.98 3.13-10.07z"/><path d="M877.25 644.77l.75 61.6" stroke="#000" stroke-width="2" fill="none"/><path d="M876.25 644.8v-.03h1.08zM878 706.36l-4.8-14.2 9.26-.12z"/><path d="M879.05 706.36h-2.1l-5.15-15.2 12.03-.14zm-4.47-13.23l3.38 10 3.14-10.08z"/><path d="M878 756.36l2 80" stroke="#000" stroke-width="2" fill="none"/><path d="M877 756.38v-.02h1.05zM880 836.36l-5-14.15 9.28-.22z"/><path d="M881.04 836.36h-2.1l-5.33-15.1 12.03-.3zm-4.63-13.18l3.52 9.94 3-10.1z"/><path d="M1320 783.5l7.17-.15 6.8-.43 6.47-.68 6.2-.9 5.93-1.14 5.7-1.34 5.53-1.54 5.35-1.74 5.2-1.93 5.07-2.13 4.96-2.34 4.86-2.54 4.78-2.76 4.7-3 4.66-3.22 4.6-3.5 4.58-3.78 4.55-4.1 4.55-4.44 4.52-4.83 4.53-5.23 4.53-5.72 4.53-6.24 4.55-6.84 4.56-7.52 4.56-8.3 4.55-9.17 4.53-10.2 4.48-11.32 4.4-12.67 4.28-14.17 4.08-15.9 3.78-17.82 3.37-19.97 2.8-22.24 2.05-24.55 1.1-26.62.15-13.9" stroke="#000" stroke-width="2" fill="none"/><path d="M1320.05 784.5h-.05v-1.1zM1497.45 512.9l-9.27-.12 4.82-14.2z"/><path d="M1498.82 513.9l-12.02-.14 5.14-15.2h2.1zm-9.25-2.1l6.52.08-3.14-10.07z"/><path d="M1300 561l2.5-.05 2.37-.15 2.27-.24 2.2-.32 2.1-.4 2.06-.5 2-.55 1.98-.65 1.95-.73 1.93-.8 1.93-.9 1.92-1.02 1.95-1.13 1.98-1.25 2.02-1.4 2.08-1.6 2.16-1.78 2.3-2.05 2.4-2.4 2.66-2.8 2.97-3.46 3.5-4.43 4.7-6.47 22.33-33.05 3.5-4.44 2.98-3.44 2.65-2.82 2.4-2.38 2.3-2.05 2.15-1.8 2.08-1.58 2.02-1.4 1.98-1.26 1.95-1.1 1.93-1.02 1.94-.9 1.93-.82 1.95-.72 1.97-.64 2-.57 2.06-.48 2.1-.4 2.2-.32 2.27-.24 2.38-.16 2.5-.05" stroke="#000" stroke-width="2" fill="none"/><path d="M1300.14 562h-.14v-1zM1425.5 464.3l-13.5 6.5-1.26-9.18z"/><path d="M1425.57 463.28l-.07 1 .06 1.1-14.38 6.92-1.62-11.9zm-12.78 6.02l9.5-4.58-10.38-1.88z"/><g filter="url(#n)"><path d="M753.62 392.04h250v50h-250z" stroke="#333" stroke-width="2" fill="#fff"/><use xlink:href="#A" transform="matrix(1,0,0,1,753.6249999999877,392.0357142857145) translate(54.10493827160494 30.27777777777778)"/></g><path d="M878.62 442.04l-.5 49.32" stroke="#000" stroke-width="2" fill="none"/><path d="M879.62 442.05h-1.07 1.08zM882.9 477.14l-4.77 14.22-4.5-14.3z"/><path d="M884.3 476.15l-5.12 15.2h-2.1l-4.8-15.32zm-6.14 11.97l3.36-10-6.52-.06z"/><g filter="url(#n)"><path d="M755 836.36h250v50H755z" stroke="#333" stroke-width="2" fill="#fff"/><use xlink:href="#B" transform="matrix(1,0,0,1,755,836.3571428571427) translate(46.04938271604938 30.27777777777778)"/><use xlink:href="#C" transform="matrix(1,0,0,1,755,836.3571428571427) translate(115.12345679012346 30.27777777777778)"/></g><path d="M880 886.36L877.5 980" stroke="#000" stroke-width="2" fill="none"/><path d="M881 886.4l-1.05-.04H881zM882.5 965.86l-5 14.14-4.25-14.38z"/><path d="M883.92 964.9l-5.36 15.1h-2.1l-4.56-15.42zm-6.33 11.87l3.5-9.94-6.5-.18z"/><g filter="url(#D)"><path d="M445.58 585H608l-40.6 121H404.98z" stroke="#333" stroke-width="2" fill="#fff"/><use xlink:href="#E" transform="matrix(1,0,0,1,404.9791666666717,585) translate(114.505 25.34027777777778)"/><use xlink:href="#F" transform="matrix(1,0,0,1,404.9791666666717,585) translate(66.56055555555555 52.00694444444445)"/><use xlink:href="#G" transform="matrix(1,0,0,1,404.9791666666717,585) translate(61.26425925925926 78.67361111111111)"/><use xlink:href="#H" transform="matrix(1,0,0,1,404.9791666666717,585) translate(19.75808641975309 105.3402777777778)"/></g><g filter="url(#I)"><path d="M1141.46 305h148.5v93.5c-24.75-15.58-40.22-15.58-49.5-15.58-14.85 0-34.65 15.58-49.5 15.58-9.28 0-24.75 0-49.5-15.58z" stroke="#333" stroke-width="2" fill="#fff"/><path d="M1149.7 313.25h148.5v93.5c-24.74-15.58-40.2-15.58-49.5-15.58-14.84 0-34.64 15.58-49.5 15.58-9.27 0-24.74 0-49.5-15.58z" stroke="#333" stroke-width="2" fill="#fff"/><path d="M1157.96 321.5h148.5V415c-24.75-15.58-40.22-15.58-49.5-15.58-14.85 0-34.65 15.58-49.5 15.58-9.28 0-24.75 0-49.5-15.58z" stroke="#333" stroke-width="2" fill="#fff"/><use xlink:href="#J" transform="matrix(1,0,0,1,1141.4583333333298,305) translate(44.177839506172845 59.02777777777778)"/></g><g filter="url(#K)"><path d="M330 458c0 6.63-26.64 12-59.5 12s-59.5-5.37-59.5-12v-96c0-6.63 26.64-12 59.5-12s59.5 5.37 59.5 12z" stroke="#333" stroke-width="2" fill="#fff"/><path d="M330 362c0 6.63-26.64 12-59.5 12s-59.5-5.37-59.5-12" stroke="#333" stroke-width="2" fill="none"/><use xlink:href="#L" transform="matrix(1,0,0,1,211,379) translate(29.319814814814812 37.68402777777778)"/><use xlink:href="#M" transform="matrix(1,0,0,1,211,379) translate(5.86302469135803 64.35069444444446)"/><use xlink:href="#N" transform="matrix(1,0,0,1,211,379) translate(72.40623456790124 64.35069444444446)"/></g><path d="M270.5 470l.1 4.78.3 4.02.38 3.44.5 3 .55 2.62.6 2.35.67 2.12.7 1.92.72 1.77.77 1.64.8 1.5.84 1.44.88 1.34.92 1.28.98 1.23 1.03 1.18 1.1 1.15 1.18 1.12 1.26 1.1 1.38 1.08 1.52 1.1 1.7 1.08 1.9 1.12 2.24 1.16 2.67 1.25 3.4 1.38 4.75 1.7 35.04 10.77 5.37 2.2 4.64 2.15 4.18 2.18 3.84 2.24 3.6 2.33 3.44 2.44 3.28 2.6 3.2 2.75 3.1 2.93 3.05 3.18 1.23 1.4 2.57 3.08 2.24 3 1.97 3 1.75 2.98 1.54 3.03 1.37 3.1 1.23 3.3 1.1 3.52 1 3.94.9 4.7.93 6.86 1.95 18.2.64 3.34.65 2.57.67 2.14.7 1.87.74 1.67.78 1.56.84 1.44.9 1.36.98 1.3 1.06 1.28 1.16 1.25 1.3 1.23 1.43 1.23 1.63 1.25 1.87 1.27 2.16 1.3 2.53 1.33 3.04 1.4 3.73 1.45 1.58.55" stroke="#000" stroke-width="2" fill="none"/><path d="M270.5 470h.04l-1.04.08v-.12zM425.28 645.5l-14.88-1.87 3.94-8.4z"/><path d="M425.63 644.46l-.67 2-16.05-2 5.12-10.9zm-13.74-1.65l10.45 1.32-7.7-7.2z"/><path d="M587.7 645.5l35.6 48.26 18.05 22.4 11.48 13.05 8.22 8.6 6.33 6.08 5.14 4.54 4.34 3.52 3.78 2.8 3.38 2.3 3.08 1.92 2.87 1.62 2.72 1.38 2.6 1.2 2.6 1.06 2.6.93 2.64.83 2.8.75 3.02.68 3.48.63 4.38.6 7.4.68 24.74 1.94 8.5 1.16 3.54.6 66.14 10.9 7.6 1.83 5.63 1.62 4.48 1.5 3.7 1.4 3.15 1.36 2.72 1.32 2.4 1.27 2.12 1.24 1.9 1.24 1.75 1.23 1.57 1.23 1.45 1.22 1.33 1.23 1.24 1.24 1.15 1.25 1.08 1.28 1 1.3.96 1.33.88 1.37.83 1.42.8 1.47.74 1.53.7 1.6.64 1.68.6 1.78.54 1.9.5 2 .43 2.17.37 2.34.3 2.55.2 2.78.08 3.1v.68" stroke="#000" stroke-width="2" fill="none"/><path d="M588.5 644.9l-.8.6.4-1.16zM880 836.36l-6.22-13.65 9.2-1.04z"/><path d="M881.02 836.36h-2.12l-6.6-14.5 11.95-1.35zm-5.76-12.82l4.37 9.6 2.1-10.33z"/><g filter="url(#O)"><path d="M330 763.6c0 8.5-28.88 15.4-64.5 15.4-35.62 0-64.5-6.9-64.5-15.4V640.4c0-8.5 28.88-15.4 64.5-15.4 35.62 0 64.5 6.9 64.5 15.4z" stroke="#333" stroke-width="2" fill="#fff"/><path d="M330 640.4c0 8.5-28.88 15.4-64.5 15.4-35.62 0-64.5-6.9-64.5-15.4" stroke="#333" stroke-width="2" fill="none"/><use xlink:href="#P" transform="matrix(1,0,0,1,201.00000000000102,660.8) translate(10.863024691358023 17.77777777777778)"/><use xlink:href="#Q" transform="matrix(1,0,0,1,201.00000000000102,660.8) translate(103.33216049382716 17.77777777777778)"/><use xlink:href="#R" transform="matrix(1,0,0,1,201.00000000000102,660.8) translate(15.832160493827155 44.44444444444444)"/><use xlink:href="#S" transform="matrix(1,0,0,1,201.00000000000102,660.8) translate(36.17166666666667 71.11111111111111)"/><use xlink:href="#T" transform="matrix(1,0,0,1,201.00000000000102,660.8) translate(21.418580246913574 97.77777777777777)"/></g><g filter="url(#U)"><path d="M340 1066c0 10.5-31.12 19-69.5 19-38.38 0-69.5-8.5-69.5-19V914c0-10.5 31.12-19 69.5-19 38.38 0 69.5 8.5 69.5 19z" stroke="#333" stroke-width="2" fill="#fff"/><path d="M340 914c0 10.5-31.12 19-69.5 19-38.38 0-69.5-8.5-69.5-19" stroke="#333" stroke-width="2" fill="none"/><use xlink:href="#V" transform="matrix(1,0,0,1,201,938) translate(5.986481481481485 36.15277777777778)"/><use xlink:href="#W" transform="matrix(1,0,0,1,201,938) translate(17.097592592592584 62.81944444444445)"/><use xlink:href="#X" transform="matrix(1,0,0,1,201,938) translate(25.739567901234558 89.48611111111111)"/><use xlink:href="#Y" transform="matrix(1,0,0,1,201,938) translate(46.665493827160496 116.1527777777778)"/></g><g filter="url(#I)"><path d="M1135 506h148.5v93.5c-24.75-15.58-40.22-15.58-49.5-15.58-14.85 0-34.65 15.58-49.5 15.58-9.28 0-24.75 0-49.5-15.58z" stroke="#333" stroke-width="2" fill="#fff"/><path d="M1143.25 514.25h148.5v93.5c-24.75-15.58-40.22-15.58-49.5-15.58-14.85 0-34.65 15.58-49.5 15.58-9.28 0-24.75 0-49.5-15.58z" stroke="#333" stroke-width="2" fill="#fff"/><path d="M1151.5 522.5H1300V616c-24.75-15.58-40.22-15.58-49.5-15.58-14.85 0-34.65 15.58-49.5 15.58-9.28 0-24.75 0-49.5-15.58z" stroke="#333" stroke-width="2" fill="#fff"/><use xlink:href="#Z" transform="matrix(1,0,0,1,1135,506) translate(47.85067901234568 59.02777777777778)"/></g><g filter="url(#aa)"><path d="M1125 717h175.5v113.05c-29.25-18.84-47.53-18.84-58.5-18.84-17.55 0-40.95 18.85-58.5 18.85-10.97 0-29.25 0-58.5-18.84z" stroke="#333" stroke-width="2" fill="#fff"/><path d="M1134.75 726.98h175.5V840c-29.25-18.84-47.53-18.84-58.5-18.84-17.55 0-40.95 18.85-58.5 18.85-10.97 0-29.25 0-58.5-18.85z" stroke="#333" stroke-width="2" fill="#fff"/><path d="M1144.5 736.95H1320V850c-29.25-18.84-47.53-18.84-58.5-18.84-17.55 0-40.95 18.84-58.5 18.84-10.97 0-29.25 0-58.5-18.84z" stroke="#333" stroke-width="2" fill="#fff"/><use xlink:href="#ab" transform="matrix(1,0,0,1,1125,717) translate(23.406234567901247 71.80902777777777)"/></g><g filter="url(#ac)"><path d="M1170 905h112c8.84 0 16 26.86 16 60s-7.16 60-16 60h-112l-32-60z" stroke="#333" stroke-width="2" fill="#fff"/><use xlink:href="#ad" transform="matrix(1,0,0,1,1138,905) translate(50.80129629629629 62.77777777777778)"/></g><g filter="url(#ae)"><path d="M463.56 755.4h106.66l35.56 61.2-35.56 61.2H463.56L428 816.6z" stroke="#333" stroke-width="2" fill="#fff"/><use xlink:href="#af" transform="matrix(1,0,0,1,428,755.4000000000001) translate(20.140802469135803 67.74652777777777)"/></g><g filter="url(#ae)"><path d="M465.78 937.6h106.66L608 998.8l-35.56 61.2H465.78l-35.56-61.2z" stroke="#333" stroke-width="2" fill="#fff"/><use xlink:href="#ag" transform="matrix(1,0,0,1,430.2222222222222,937.5887474882787) translate(22.640802469135817 67.74652777777777)"/></g><path d="M270.5 470l.1 5.38.33 5.12.52 4.92.7 4.76.9 4.64 1.06 4.58 1.3 4.56 1.48 4.6 1.73 4.66 2.05 4.83 2.4 5.1 2.9 5.57 3.7 6.35 5.1 8.03 31.48 45.54 3.95 6.83 3.18 6.07 2.65 5.64 2.28 5.4 1.97 5.27 1.7 5.23 1.46 5.24 1.26 5.32 1.04 5.45.83 5.62.47 4.28 7.1 73.8 2.3 14.48 2.1 10.48 2.02 8.2 1.96 6.73 1.9 5.64 1.86 4.85 1.83 4.2 1.8 3.73 1.77 3.3 1.76 2.98 1.75 2.7 1.74 2.45 1.73 2.24 1.74 2.04 1.75 1.9 1.76 1.76 1.77 1.63 1.8 1.52 1.84 1.42 1.86 1.33 1.9 1.24 1.97 1.16 2.03 1.08 2.1 1 2.16.95 2.26.87 2.37.8 2.5.7 2.6.65 2.8.56 2.95.48 3.18.36 3.4.25 3.7.1h.92" stroke="#000" stroke-width="2" fill="none"/><path d="M270.5 470h.07l-1.07.06v-.1zM428 816.6l-14.63 3.34.84-9.23z"/><path d="M428.5 815.73l-.5.88.53.9-16.27 3.72 1.08-11.98zm-14 2.93l10.28-2.35-9.7-4.13z"/><path d="M265.5 779l.06 2.77.15 2.52.25 2.28.3 2.1.38 1.94.43 1.8.46 1.67.52 1.57.55 1.48.58 1.4.62 1.33.66 1.27.7 1.22.74 1.16.78 1.12.83 1.1.88 1.04.9 1 1 1 1.02.97 1.1.95 1.17.93 1.26.9 1.36.9 1.45.9 1.58.87 1.74.86 1.9.84 2.1.83 2.33.82 2.63.8 2.97.75 3.42.72 3.98.68 4.72.6 5.74.47 7.23.28h9.68l14.9-.66 74.16-5.56 5.26-.05" stroke="#000" stroke-width="2" fill="none"/><path d="M265.5 779h.02l-1 .13-.03-.17zM428 816.6L414 822l-.5-9.26z"/><path d="M428.52 815.7l-.52.9.5.88-15.43 5.93-.63-12zm-13.6 4.85l9.85-3.78-10.2-2.72z"/><path d="M340 990h.7l.68-.06.67-.07.67-.1.66-.12.66-.16.66-.2.67-.2.67-.26.67-.28.7-.33.7-.37.73-.4.74-.48.76-.53.8-.6.82-.7.86-.77.92-.9.97-1.02 1.02-1.2 1.1-1.38 1.2-1.64 1.3-1.96 1.42-2.37 1.6-2.9 1.8-3.65 2.1-4.73 2.52-6.38 3.2-9.22 4.73-15.8 19.34-71.63 3.2-9.24 2.5-6.37 2.1-4.74 1.82-3.66 1.6-2.9 1.43-2.37 1.3-1.96 1.18-1.64 1.1-1.4 1.03-1.2.98-1 .9-.9.87-.8.83-.67.8-.6.75-.53.74-.47.72-.42.7-.37.7-.32.66-.3.67-.24.67-.2.66-.2.66-.14.66-.13.67-.1.67-.07.68-.04h.7" stroke="#000" stroke-width="2" fill="none"/><path d="M340.42 990.9l-.42.2V990zM416.96 826.76l-3.86-8.43 14.9-1.72z"/><path d="M428 816.6l.5.9-11.88 10.92-5-10.93 17-1.97zm-13.42 2.56l2.7 5.93 7.78-7.15z"/><path d="M755 861.36l-7.32-.15-6.47-.4-5.8-.6-5.32-.8-4.92-.93-4.63-1.08-4.44-1.25-4.34-1.4-4.32-1.62-4.47-1.88-4.86-2.3-5.87-3.07L662.66 829l-4.85-2.3-4.46-1.87-4.32-1.6-4.33-1.4-4.45-1.25-4.63-1.1-4.93-.93-5.32-.78-5.8-.6-6.48-.4-7.32-.16" stroke="#000" stroke-width="2" fill="none"/><path d="M755 862.36h-.05l.05-1.05zM619.82 821.88l-14.04-5.27 14.46-3.98z"/><path d="M620.76 823.3l-15.5-5.82.52-.87-.52-.9 16.04-4.4zM609 816.75l9.88 3.7.3-6.5z"/><path d="M878.12 541.36l-.87 53.4" stroke="#000" stroke-width="2" fill="none"/><path d="M879.12 541.37h-1.04 1.05zM882.12 580.6l-4.87 14.17-4.4-14.34z"/><path d="M883.5 579.6l-5.2 15.17h-2.1l-4.7-15.36zm-6.2 11.94l3.43-9.98-6.52-.1z"/><g filter="url(#ah)"><path d="M1425.5 785H1547v114.75c-20.25-19.13-32.9-19.13-40.5-19.13-12.15 0-28.35 19.13-40.5 19.13-7.6 0-20.25 0-40.5-19.13z" stroke="#333" stroke-width="2" fill="#fff"/><path d="M1432.25 795.13h121.5v114.75c-20.25-19.13-32.9-19.13-40.5-19.13-12.15 0-28.35 19.13-40.5 19.13-7.6 0-20.25 0-40.5-19.13z" stroke="#333" stroke-width="2" fill="#fff"/><path d="M1439 805.25h121.5V920c-20.25-19.13-32.9-19.13-40.5-19.13-12.15 0-28.35 19.13-40.5 19.13-7.6 0-20.25 0-40.5-19.13z" stroke="#333" stroke-width="2" fill="#fff"/><use xlink:href="#ai" transform="matrix(1,0,0,1,1425.5,785) translate(28.15932098765432 72.62152777777777)"/></g><path d="M516.9 877.8l2.2 59.8" stroke="#000" stroke-width="2" fill="none"/><path d="M515.9 877.85v-.04h1zM519.1 937.6l-5.15-14.1 9.26-.34z"/><path d="M520.15 937.6h-2.1l-5.5-15.04 12-.45zm-4.8-13.15l3.64 9.9 2.87-10.14z"/><path d="M608 998.8l3.5-.08 3.16-.2 2.87-.3 2.62-.38 2.4-.46 2.24-.52 2.06-.58 1.94-.63 1.8-.68 1.72-.7 1.62-.77 1.54-.8 1.46-.85 1.4-.9 1.34-.92 1.3-1 1.24-1.02 1.2-1.07 1.18-1.15 1.13-1.2 1.1-1.3 1.1-1.35 1.04-1.45 1.03-1.56 1-1.66 1-1.8.96-1.94.94-2.1.92-2.32.88-2.55.85-2.82.8-3.15.76-3.54.7-4.04.57-4.64.46-5.42.26-6.42v-7.8l-.43-9.74-1.08-12.72-2.32-18.04-5.58-32.4-5.58-29.23m0 0c2.7-.53 4.5-3.15 3.98-5.86-.52-2.7-3.14-4.5-5.85-3.98l-11.53-60.4-2.3-18.04-1.1-12.72-.4-9.74v-7.8l.25-6.42-.27 3.32m0 0c-2.75-.23-4.8-2.65-4.57-5.4.23-2.75 2.65-4.8 5.4-4.57l.48-3.42.7-4.04.74-3.54.8-3.15.86-2.82.88-2.55.92-2.3.94-2.12.96-1.95 1-1.78 1-1.66 1.03-1.56 1.05-1.45 1.08-1.36 1.1-1.3 1.14-1.2 1.17-1.15 1.2-1.08 1.25-1.03 1.3-.98 1.34-.94 1.4-.9 1.46-.83 1.54-.8 1.62-.78 1.7-.7 1.82-.7 1.94-.62 2.07-.58 2.24-.52 2.4-.46 2.63-.38 2.87-.3 3.15-.2 3.5-.07" stroke="#000" stroke-width="2" fill="none"/><path d="M608.1 999.8l-.72.06.62-1.07-.55-.95.45-.05zM680 645.8l-13.73 6.02-.93-9.22z"/><path d="M680 644.76v2.12l-14.6 6.4-1.2-11.95zm-12.87 5.6l9.65-4.25-10.3-2.23z"/><path d="M945 1014.3l11-.24 9.53-.6 8.44-.88 7.64-1.12 7.05-1.35 6.62-1.54 6.4-1.8 6.37-2.05 6.62-2.46 7.46-3.14 10.7-5.07 28.06-13.84 7.46-3.15 6.62-2.47 6.37-2.07 6.4-1.78 6.62-1.55 7.04-1.34 7.63-1.13 8.44-.88 9.54-.6 11-.22" stroke="#000" stroke-width="2" fill="none"/><path d="M945.03 1015.3h-.1l.07-1-.06-1h.03zM1138 965l-14.1 5.08-.3-9.26z"/><path d="M1138.48 964.1l-.48.9.48.9-15.55 5.6-.38-12.03zm-13.64 4.58l9.93-3.58-10.13-2.94z"/><path d="M945 1014.3l2.17-.06 2.1-.13 2.07-.2 2.02-.3 2-.4 1.95-.45 1.95-.54 1.94-.62 1.93-.72 1.94-.82 1.95-.92 1.98-1.03 2.02-1.17 2.05-1.3 2.1-1.47 2.17-1.64 2.24-1.86 2.34-2.1 2.45-2.4 2.58-2.76 2.75-3.2 2.95-3.72 3.2-4.42 3.55-5.33 3.98-6.58 4.63-8.45 5.7-11.5 8.08-18.24 34.5-84.37 5.7-11.52 4.64-8.44 3.98-6.6 3.54-5.32 3.2-4.42 2.96-3.73 2.75-3.18 2.58-2.77 2.45-2.4 2.34-2.1 2.24-1.86 2.17-1.65 2.1-1.46 2.05-1.3 2.02-1.16 1.98-1.04 1.95-.92 1.94-.82 1.94-.72 1.95-.63 1.94-.54 1.95-.46 2-.38 2-.3 2.07-.22 2.1-.13 2.18-.05" stroke="#000" stroke-width="2" fill="none"/><path d="M945.15 1015.27l-.22.04.07-1v-.04zM1125 783.5l-13.4 6.72-1.4-9.16z"/><path d="M1125 782.5v2.12l-14.2 7.12-1.8-11.9zm-12.63 6.2l9.43-4.7-10.4-1.73z"/><path d="M945 1014.3l1.24-.04 1.23-.08 1.2-.12 1.2-.18 1.2-.23 1.2-.28 1.22-.34 1.2-.4 1.23-.45 1.25-.53 1.27-.6 1.3-.68 1.34-.77 1.37-.88 1.43-1 1.5-1.12 1.54-1.3 1.64-1.46 1.72-1.7 1.83-1.94 1.96-2.27 2.1-2.66 2.27-3.14 2.5-3.75 2.74-4.54 3.07-5.58 3.46-6.98 3.97-8.94 4.66-11.82 5.68-16.36 7.3-24.37 10.98-43.2 45.33-201.1 7.3-24.38 5.7-16.35 4.65-11.82 3.97-8.94 3.46-6.97 3.06-5.58 2.74-4.54 2.5-3.74 2.27-3.14 2.1-2.66 1.97-2.27 1.83-1.96 1.72-1.7 1.64-1.47 1.55-1.28 1.5-1.14 1.43-1 1.38-.87 1.34-.8 1.3-.67 1.28-.6 1.25-.52 1.23-.45 1.2-.4 1.22-.33 1.2-.28 1.2-.23 1.2-.17 1.2-.13 1.24-.07 1.24-.03" stroke="#000" stroke-width="2" fill="none"/><path d="M945.25 1015.25l-.33.1.08-1.06v-.03zM1135 561l-12.65 8.06-2.32-8.98z"/><path d="M1135 560v2.2l-13.28 8.44-3-11.64zm-12.03 7.47l8.9-5.66-10.53-.64z"/><path d="M945 1014.3l.92-.03.92-.06.9-.1.9-.12.92-.17.9-.2.93-.27.93-.3.94-.35.97-.4 1-.47 1-.53 1.06-.6 1.1-.7 1.12-.78 1.2-.9 1.23-1.05 1.32-1.18 1.4-1.37 1.48-1.6 1.6-1.84 1.73-2.2 1.9-2.6 2.06-3.1 2.3-3.8 2.55-4.67 2.9-5.87 3.33-7.5 3.9-9.88 4.65-13.4 5.73-19.08 7.42-29.08 10.6-50.5 63.42-375.4 7.4-29.08 5.74-19.08 4.65-13.4 3.9-9.88 3.33-7.5 2.9-5.87 2.57-4.68 2.3-3.8 2.06-3.1 1.87-2.6 1.73-2.2 1.6-1.85 1.5-1.6 1.4-1.35 1.3-1.2 1.25-1.02 1.2-.9 1.12-.8 1.1-.68 1.04-.6 1.03-.54 1-.47.95-.4.95-.35.93-.3.93-.26.9-.22.9-.17.9-.13.92-.1.9-.05.94-.02" stroke="#000" stroke-width="2" fill="none"/><path d="M945.32 1015.23l-.4.14.08-1.08v-.02zM1129.43 368.96l-2.97-8.78 15-.18z"/><path d="M1141.46 361.25l-12.54 9.33-3.85-11.4 16.4-.18zm-13.6-.1l2.07 6.18 8.46-6.3z"/><path d="M1298 965l126.25 1.88 15.48-.95 10.88-1.13 8.1-1.2 6.28-1.18 5-1.17 4.03-1.12 3.35-1.1 2.8-1.03 2.38-1 2.04-.95 1.76-.93 1.55-.88 1.35-.86 1.2-.83 1.06-.8.95-.8.85-.77.77-.76.7-.74.63-.73.58-.73.52-.72.48-.72.43-.7.4-.73.37-.72.32-.73.28-.74.26-.74.23-.77.2-.77.17-.8.14-.82.1-.85.08-.87.04-.92v-.95l-.04-1-.1-1.07-.13-1.13-.2-1.2-.28-1.28-.36-1.4-.46-1.5-.57-1.63-.7-1.8-.9-1.98-1.1-2.23-1.38-2.5-.8-1.33" stroke="#000" stroke-width="2" fill="none"/><path d="M1298.02 964l-.03 2h-.04l.04-1-.03-1zM1503.03 925.76l-8.48 3.76-1.55-14.92z"/><path d="M1504.7 926.1l-11 4.9-1.68-16.18 1.64-.98zm-9.3 1.95l5.96-2.65-7.05-7.84z"/><path d="M1300 561l8.2.17 7.94.5 7.74.8 7.54 1.13 7.36 1.4 7.2 1.7 7.05 1.96 6.9 2.24 6.78 2.52 6.67 2.8 6.55 3.08 6.44 3.37 6.33 3.66 6.23 3.96 6.14 4.25 6.04 4.6 5.95 4.9 5.83 5.26 5.73 5.6 5.6 5.98 5.48 6.34 5.32 6.72 5.17 7.1 5 7.52 4.78 7.9 4.57 8.32-.5-.97m0 0c2.5-1.22 5.5-.2 6.7 2.27 1.24 2.47.23 5.47-2.24 6.7l4.42 9.84 3.76 9.5 3.43 9.87 3.07 10.2 2.7 10.55 2.3 10.84 1.9 11.1 1.42 11.3.95 11.52.5 11.66.05 5.86" stroke="#000" stroke-width="2" fill="none"/><path d="M1300.04 560l-.04 1.1V560zM1493 785l-5.06-14.12 9.27-.28z"/><path d="M1494.04 785h-2.1l-5.4-15.08 12.02-.36zm-4.7-13.16l3.56 9.93 2.97-10.13z"/><path d="M1320 783.5l2.77.06 2.6.2 2.45.28 2.34.4 2.24.48 2.16.57 2.1.66 2.07.77 2.04.87 2.03.98 2.04 1.1 2.07 1.26 2.13 1.43 2.2 1.64 2.33 1.92 2.52 2.3 2.84 2.8 3.42 3.75 5.05 6.1 15.76 19.96 3.42 3.74 2.84 2.82 2.52 2.28 2.33 1.9 2.2 1.65 2.12 1.43 2.06 1.25 2.04 1.12 2.03.98 2.04.87 2.06.77 2.1.67 2.17.58 2.24.5 2.34.38 2.45.3 2.6.18 2.77.06" stroke="#000" stroke-width="2" fill="none"/><path d="M1320.14 782.5l-.14 1v-1zM1425.5 852.5l-14.77 2.6 1.28-9.17z"/><path d="M1425.5 851.4v2.12l-15.95 2.82 1.66-11.9zm-13.6 2.5l10.4-1.85-9.5-4.62z"/><path d="M1306.46 360l77.92.16 16.77 1.03 12.22 1.26 9.58 1.4 7.83 1.5 6.55 1.53 5.6 1.55 4.86 1.58 4.25 1.58 3.77 1.6 3.37 1.58 3.02 1.58 2.75 1.6 2.5 1.57 2.3 1.6 2.1 1.6 1.94 1.6 1.82 1.63 1.67 1.64 1.55 1.66 1.46 1.7 1.38 1.7 1.27 1.77 1.2 1.8 1.12 1.85 1.05 1.9.98 1.98.9 2.05.86 2.14.77 2.23.7 2.35.64 2.46.56 2.62.47 2.78.37 2.96.27 3.2.14 3.43.02 1.83" stroke="#000" stroke-width="2" fill="none"/><path d="M1306.46 359v2-2zM1493 430l-5.97-13.76 9.23-.88z"/><path d="M1494.02 430h-2.1l-6.35-14.63 11.96-1.14zm-5.52-12.9l4.2 9.68 2.28-10.3z"/><path d="M131 107.9h399v106.67H131z" fill="none"/><use xlink:href="#aj" transform="matrix(1,0,0,1,131,107.90000000000002) translate(43.895061728395035 60.611111111111114)"/><use xlink:href="#ak" transform="matrix(1,0,0,1,131,107.90000000000002) translate(150.36419753086417 60.611111111111114)"/><use xlink:href="#al" transform="matrix(1,0,0,1,131,107.90000000000002) translate(181.87037037037035 60.611111111111114)"/><use xlink:href="#am" transform="matrix(1,0,0,1,131,107.90000000000002) translate(268.58641975308643 60.611111111111114)"/><path d="M512 107.9h478v106.67H512z" fill="none"/><use xlink:href="#aj" transform="matrix(1,0,0,1,512,107.90000000000002) translate(26.56172839506172 60.611111111111114)"/><use xlink:href="#an" transform="matrix(1,0,0,1,512,107.90000000000002) translate(133.03086419753086 60.611111111111114)"/><use xlink:href="#al" transform="matrix(1,0,0,1,512,107.90000000000002) translate(174.41358024691357 60.611111111111114)"/><use xlink:href="#ao" transform="matrix(1,0,0,1,512,107.90000000000002) translate(261.1296296296296 60.611111111111114)"/><path d="M965 107.9h470v106.67H965z" fill="none"/><g><use xlink:href="#aj" transform="matrix(1,0,0,1,965,107.90000000000002) translate(40.29012345679013 60.611111111111114)"/><use xlink:href="#ap" transform="matrix(1,0,0,1,965,107.90000000000002) translate(146.75925925925927 60.611111111111114)"/><use xlink:href="#al" transform="matrix(1,0,0,1,965,107.90000000000002) translate(198.01851851851853 60.611111111111114)"/><use xlink:href="#aq" transform="matrix(1,0,0,1,965,107.90000000000002) translate(284.7345679012346 60.611111111111114)"/></g><defs><path d="M169-182c-1-43-94-46-97-3 18 66 151 10 154 114 3 95-165 93-204 36-6-8-10-19-12-30l50-8c3 46 112 56 116 5-17-69-150-10-154-114-4-87 153-88 188-35 5 8 8 18 10 28" id="ar"/><path d="M140-251c80 0 125 45 125 126S219 4 139 4C58 4 15-44 15-125s44-126 125-126zm-1 214c52 0 73-35 73-88 0-50-21-86-72-86-52 0-73 35-73 86s22 88 72 88" id="as"/><path d="M76-208v77h127v40H76V0H24v-248h183v40H76" id="at"/><path d="M136-208V0H84v-208H4v-40h212v40h-80" id="au"/><path d="M275 0h-61l-44-196L126 0H64L0-248h53L97-49l45-199h58l43 199 44-199h52" id="av"/><path d="M199 0l-22-63H83L61 0H9l90-248h61L250 0h-51zm-33-102l-36-108c-10 38-24 72-36 108h72" id="aw"/><path d="M240-174c0 40-23 61-54 70L253 0h-59l-57-94H76V0H24v-248c93 4 217-23 216 74zM76-134c48-2 112 12 112-38 0-48-66-32-112-35v73" id="ax"/><path d="M24 0v-248h195v40H76v63h132v40H76v65h150V0H24" id="ay"/><g id="b"><use transform="matrix(0.06172839506172839,0,0,0.06172839506172839,0,0)" xlink:href="#ar"/><use transform="matrix(0.06172839506172839,0,0,0.06172839506172839,14.814814814814813,0)" xlink:href="#as"/><use transform="matrix(0.06172839506172839,0,0,0.06172839506172839,32.09876543209876,0)" xlink:href="#at"/><use transform="matrix(0.06172839506172839,0,0,0.06172839506172839,45.61728395061728,0)" xlink:href="#au"/><use transform="matrix(0.06172839506172839,0,0,0.06172839506172839,59.1358024691358,0)" xlink:href="#av"/><use transform="matrix(0.06172839506172839,0,0,0.06172839506172839,78.82716049382715,0)" xlink:href="#aw"/><use transform="matrix(0.06172839506172839,0,0,0.06172839506172839,94.81481481481481,0)" xlink:href="#ax"/><use transform="matrix(0.06172839506172839,0,0,0.06172839506172839,110.80246913580247,0)" xlink:href="#ay"/></g><path d="M24 0v-248h52v208h133V0H24" id="az"/><g id="c"><use transform="matrix(0.06172839506172839,0,0,0.06172839506172839,0,0)" xlink:href="#au"/><use transform="matrix(0.06172839506172839,0,0,0.06172839506172839,13.08641975308642,0)" xlink:href="#as"/><use transform="matrix(0.06172839506172839,0,0,0.06172839506172839,30.370370370370367,0)" xlink:href="#as"/><use transform="matrix(0.06172839506172839,0,0,0.06172839506172839,47.654320987654316,0)" xlink:href="#az"/></g><filter id="a" filterUnits="objectBoundingBox" x="-.01" y="0" width="1.03" height="1.02"><feOffset result="offOut" in="SourceAlpha" dy="3"/><feGaussianBlur result="blurOut" in="offOut" stdDeviation="2.5"/><feColorMatrix result="colorOut" in="blurOut" values="0 0 0 0 0 0 0 0 0 0 0 0 0 0 0 0 0 0 0.5019607843137255 0"/><feBlend in="SourceGraphic" in2="colorOut"/></filter><path d="M110-194c64 0 96 36 96 99 0 64-35 99-97 99-61 0-95-36-95-99 0-62 34-99 96-99zm-1 164c35 0 45-28 45-65 0-40-10-65-43-65-34 0-45 26-45 65 0 36 10 65 43 65" id="aA"/><path d="M85 4C-2 5 27-109 22-190h50c7 57-23 150 33 157 60-5 35-97 40-157h50l1 190h-47c-2-12 1-28-3-38-12 25-28 42-61 42" id="aB"/><path d="M135-150c-39-12-60 13-60 57V0H25l-1-190h47c2 13-1 29 3 40 6-28 27-53 61-41v41" id="aC"/><path d="M190-63c-7 42-38 67-86 67-59 0-84-38-90-98-12-110 154-137 174-36l-49 2c-2-19-15-32-35-32-30 0-35 28-38 64-6 74 65 87 74 30" id="aD"/><path d="M185-48c-13 30-37 53-82 52C43 2 14-33 14-96s30-98 90-98c62 0 83 45 84 108H66c0 31 8 55 39 56 18 0 30-7 34-22zm-45-69c5-46-57-63-70-21-2 6-4 13-4 21h74" id="aE"/><path d="M137-138c1-29-70-34-71-4 15 46 118 7 119 86 1 83-164 76-172 9l43-7c4 19 20 25 44 25 33 8 57-30 24-41C81-84 22-81 20-136c-2-80 154-74 161-7" id="aF"/><g id="e"><use transform="matrix(0.06172839506172839,0,0,0.06172839506172839,0,0)" xlink:href="#ar"/><use transform="matrix(0.06172839506172839,0,0,0.06172839506172839,14.814814814814813,0)" xlink:href="#aA"/><use transform="matrix(0.06172839506172839,0,0,0.06172839506172839,28.33333333333333,0)" xlink:href="#aB"/><use transform="matrix(0.06172839506172839,0,0,0.06172839506172839,41.85185185185185,0)" xlink:href="#aC"/><use transform="matrix(0.06172839506172839,0,0,0.06172839506172839,50.49382716049382,0)" xlink:href="#aD"/><use transform="matrix(0.06172839506172839,0,0,0.06172839506172839,62.8395061728395,0)" xlink:href="#aE"/><use transform="matrix(0.06172839506172839,0,0,0.06172839506172839,75.18518518518518,0)" xlink:href="#aF"/></g><path d="M24 0v-248h52V0H24" id="aG"/><path d="M135-194c87-1 58 113 63 194h-50c-7-57 23-157-34-157-59 0-34 97-39 157H25l-1-190h47c2 12-1 28 3 38 12-26 28-41 61-42" id="aH"/><path d="M135-194c53 0 70 44 70 98 0 56-19 98-73 100-31 1-45-17-59-34 3 33 2 69 2 105H25l-1-265h48c2 10 0 23 3 31 11-24 29-35 60-35zM114-30c33 0 39-31 40-66 0-38-9-64-40-64-56 0-55 130 0 130" id="aI"/><path d="M115-3C79 11 28 4 28-45v-112H4v-33h27l15-45h31v45h36v33H77v99c-1 23 16 31 38 25v30" id="aJ"/><g id="f"><use transform="matrix(0.06172839506172839,0,0,0.06172839506172839,0,0)" xlink:href="#aG"/><use transform="matrix(0.06172839506172839,0,0,0.06172839506172839,6.172839506172839,0)" xlink:href="#aH"/><use transform="matrix(0.06172839506172839,0,0,0.06172839506172839,19.691358024691358,0)" xlink:href="#aI"/><use transform="matrix(0.06172839506172839,0,0,0.06172839506172839,33.20987654320987,0)" xlink:href="#aB"/><use transform="matrix(0.06172839506172839,0,0,0.06172839506172839,46.72839506172839,0)" xlink:href="#aJ"/><use transform="matrix(0.06172839506172839,0,0,0.06172839506172839,54.07407407407407,0)" xlink:href="#aF"/></g><path d="M24-248c93 1 206-16 204 79-1 75-69 88-152 82V0H24v-248zm52 121c47 0 100 7 100-41 0-47-54-39-100-39v80" id="aK"/><g id="g"><use transform="matrix(0.06172839506172839,0,0,0.06172839506172839,0,0)" xlink:href="#aK"/><use transform="matrix(0.06172839506172839,0,0,0.06172839506172839,14.814814814814813,0)" xlink:href="#aC"/><use transform="matrix(0.06172839506172839,0,0,0.06172839506172839,23.456790123456788,0)" xlink:href="#aA"/><use transform="matrix(0.06172839506172839,0,0,0.06172839506172839,36.9753086419753,0)" xlink:href="#aD"/><use transform="matrix(0.06172839506172839,0,0,0.06172839506172839,49.32098765432098,0)" xlink:href="#aE"/><use transform="matrix(0.06172839506172839,0,0,0.06172839506172839,61.66666666666666,0)" xlink:href="#aF"/><use transform="matrix(0.06172839506172839,0,0,0.06172839506172839,74.01234567901234,0)" xlink:href="#aF"/></g><g id="h"><use transform="matrix(0.06172839506172839,0,0,0.06172839506172839,0,0)" xlink:href="#as"/><use transform="matrix(0.06172839506172839,0,0,0.06172839506172839,17.28395061728395,0)" xlink:href="#aB"/><use transform="matrix(0.06172839506172839,0,0,0.06172839506172839,30.80246913580247,0)" xlink:href="#aJ"/><use transform="matrix(0.06172839506172839,0,0,0.06172839506172839,38.148148148148145,0)" xlink:href="#aI"/><use transform="matrix(0.06172839506172839,0,0,0.06172839506172839,51.666666666666664,0)" xlink:href="#aB"/><use transform="matrix(0.06172839506172839,0,0,0.06172839506172839,65.18518518518518,0)" xlink:href="#aJ"/><use transform="matrix(0.06172839506172839,0,0,0.06172839506172839,72.53086419753086,0)" xlink:href="#aF"/></g><path d="M67-125c0 53 21 87 73 88 37 1 54-22 65-47l45 17C233-25 199 4 140 4 58 4 20-42 15-125 8-235 124-281 211-232c18 10 29 29 36 50l-46 12c-8-25-30-41-62-41-52 0-71 34-72 86" id="aL"/><path d="M220-157c-53 9-28 100-34 157h-49v-107c1-27-5-49-29-50C55-147 81-57 75 0H25l-1-190h47c2 12-1 28 3 38 10-53 101-56 108 0 13-22 24-43 59-42 82 1 51 116 57 194h-49v-107c-1-25-5-48-29-50" id="aM"/><g id="i"><use transform="matrix(0.06172839506172839,0,0,0.06172839506172839,0,0)" xlink:href="#aL"/><use transform="matrix(0.06172839506172839,0,0,0.06172839506172839,15.987654320987653,0)" xlink:href="#aA"/><use transform="matrix(0.06172839506172839,0,0,0.06172839506172839,29.50617283950617,0)" xlink:href="#aH"/><use transform="matrix(0.06172839506172839,0,0,0.06172839506172839,43.02469135802469,0)" xlink:href="#aF"/><use transform="matrix(0.06172839506172839,0,0,0.06172839506172839,55.37037037037037,0)" xlink:href="#aB"/><use transform="matrix(0.06172839506172839,0,0,0.06172839506172839,68.88888888888889,0)" xlink:href="#aM"/><use transform="matrix(0.06172839506172839,0,0,0.06172839506172839,88.64197530864197,0)" xlink:href="#aE"/><use transform="matrix(0.06172839506172839,0,0,0.06172839506172839,100.98765432098766,0)" xlink:href="#aC"/></g><filter id="d" filterUnits="objectBoundingBox" x="0" y="0" width="1.01" height="1.01"><feOffset result="offOut" in="SourceAlpha" dy="3"/><feGaussianBlur result="blurOut" in="offOut" stdDeviation="2.5"/><feColorMatrix result="colorOut" in="blurOut" values="0 0 0 0 0 0 0 0 0 0 0 0 0 0 0 0 0 0 0.5019607843137255 0"/><feBlend in="SourceGraphic" in2="colorOut"/></filter><path d="M185-189c-5-48-123-54-124 2 14 75 158 14 163 119 3 78-121 87-175 55-17-10-28-26-33-46l33-7c5 56 141 63 141-1 0-78-155-14-162-118-5-82 145-84 179-34 5 7 8 16 11 25" id="aN"/><path d="M24-231v-30h32v30H24zM24 0v-190h32V0H24" id="aO"/><path d="M210-169c-67 3-38 105-44 169h-31v-121c0-29-5-50-35-48C34-165 62-65 56 0H25l-1-190h30c1 10-1 24 2 32 10-44 99-50 107 0 11-21 27-35 58-36 85-2 47 119 55 194h-31v-121c0-29-5-49-35-48" id="aP"/><path d="M84 4C-5 8 30-112 23-190h32v120c0 31 7 50 39 49 72-2 45-101 50-169h31l1 190h-30c-1-10 1-25-2-33-11 22-28 36-60 37" id="aQ"/><path d="M24 0v-261h32V0H24" id="aR"/><path d="M141-36C126-15 110 5 73 4 37 3 15-17 15-53c-1-64 63-63 125-63 3-35-9-54-41-54-24 1-41 7-42 31l-33-3c5-37 33-52 76-52 45 0 72 20 72 64v82c-1 20 7 32 28 27v20c-31 9-61-2-59-35zM48-53c0 20 12 33 32 33 41-3 63-29 60-74-43 2-92-5-92 41" id="aS"/><path d="M59-47c-2 24 18 29 38 22v24C64 9 27 4 27-40v-127H5v-23h24l9-43h21v43h35v23H59v120" id="aT"/><path d="M100-194c63 0 86 42 84 106H49c0 40 14 67 53 68 26 1 43-12 49-29l28 8c-11 28-37 45-77 45C44 4 14-33 15-96c1-61 26-98 85-98zm52 81c6-60-76-77-97-28-3 7-6 17-6 28h103" id="aU"/><path d="M85-194c31 0 48 13 60 33l-1-100h32l1 261h-30c-2-10 0-23-3-31C134-8 116 4 85 4 32 4 16-35 15-94c0-66 23-100 70-100zm9 24c-40 0-46 34-46 75 0 40 6 74 45 74 42 0 51-32 51-76 0-42-9-74-50-73" id="aV"/><g id="k"><use transform="matrix(0.06172839506172839,0,0,0.06172839506172839,0,0)" xlink:href="#aN"/><use transform="matrix(0.06172839506172839,0,0,0.06172839506172839,14.814814814814813,0)" xlink:href="#aO"/><use transform="matrix(0.06172839506172839,0,0,0.06172839506172839,19.691358024691354,0)" xlink:href="#aP"/><use transform="matrix(0.06172839506172839,0,0,0.06172839506172839,38.14814814814814,0)" xlink:href="#aQ"/><use transform="matrix(0.06172839506172839,0,0,0.06172839506172839,50.493827160493815,0)" xlink:href="#aR"/><use transform="matrix(0.06172839506172839,0,0,0.06172839506172839,55.37037037037036,0)" xlink:href="#aS"/><use transform="matrix(0.06172839506172839,0,0,0.06172839506172839,67.71604938271604,0)" xlink:href="#aT"/><use transform="matrix(0.06172839506172839,0,0,0.06172839506172839,73.88888888888887,0)" xlink:href="#aU"/><use transform="matrix(0.06172839506172839,0,0,0.06172839506172839,86.23456790123456,0)" xlink:href="#aV"/></g><path d="M177-190C167-65 218 103 67 71c-23-6-38-20-44-43l32-5c15 47 100 32 89-28v-30C133-14 115 1 83 1 29 1 15-40 15-95c0-56 16-97 71-98 29-1 48 16 59 35 1-10 0-23 2-32h30zM94-22c36 0 50-32 50-73 0-42-14-75-50-75-39 0-46 34-46 75s6 73 46 73" id="aW"/><path d="M135-143c-3-34-86-38-87 0 15 53 115 12 119 90S17 21 10-45l28-5c4 36 97 45 98 0-10-56-113-15-118-90-4-57 82-63 122-42 12 7 21 19 24 35" id="aX"/><g id="l"><use transform="matrix(0.06172839506172839,0,0,0.06172839506172839,0,0)" xlink:href="#aO"/><use transform="matrix(0.06172839506172839,0,0,0.06172839506172839,4.876543209876543,0)" xlink:href="#aP"/><use transform="matrix(0.06172839506172839,0,0,0.06172839506172839,23.33333333333333,0)" xlink:href="#aS"/><use transform="matrix(0.06172839506172839,0,0,0.06172839506172839,35.679012345679006,0)" xlink:href="#aW"/><use transform="matrix(0.06172839506172839,0,0,0.06172839506172839,48.02469135802468,0)" xlink:href="#aU"/><use transform="matrix(0.06172839506172839,0,0,0.06172839506172839,60.37037037037036,0)" xlink:href="#aX"/></g><filter id="j" filterUnits="objectBoundingBox" x="-.02" y="-.02" width="1.05" height="1.12"><feOffset result="offOut" in="SourceAlpha" dy="3"/><feGaussianBlur result="blurOut" in="offOut" stdDeviation="2.5"/><feColorMatrix result="colorOut" in="blurOut" values="0 0 0 0 0 0 0 0 0 0 0 0 0 0 0 0 0 0 0.5019607843137255 0"/><feBlend in="SourceGraphic" in2="colorOut"/></filter><path d="M233-177c-1 41-23 64-60 70L243 0h-38l-65-103H63V0H30v-248c88 3 205-21 203 71zM63-129c60-2 137 13 137-47 0-61-80-42-137-45v92" id="aY"/><g id="m"><use transform="matrix(0.06172839506172839,0,0,0.06172839506172839,0,0)" xlink:href="#aY"/><use transform="matrix(0.06172839506172839,0,0,0.06172839506172839,15.987654320987653,0)" xlink:href="#aU"/><use transform="matrix(0.06172839506172839,0,0,0.06172839506172839,28.333333333333332,0)" xlink:href="#aS"/><use transform="matrix(0.06172839506172839,0,0,0.06172839506172839,40.67901234567901,0)" xlink:href="#aR"/></g><path d="M30-248c118-7 216 8 213 122C240-48 200 0 122 0H30v-248zM63-27c89 8 146-16 146-99s-60-101-146-95v194" id="aZ"/><path d="M96-169c-40 0-48 33-48 73s9 75 48 75c24 0 41-14 43-38l32 2c-6 37-31 61-74 61-59 0-76-41-82-99-10-93 101-131 147-64 4 7 5 14 7 22l-32 3c-4-21-16-35-41-35" id="ba"/><g id="o"><use transform="matrix(0.06172839506172839,0,0,0.06172839506172839,0,0)" xlink:href="#aZ"/><use transform="matrix(0.06172839506172839,0,0,0.06172839506172839,15.987654320987653,0)" xlink:href="#aU"/><use transform="matrix(0.06172839506172839,0,0,0.06172839506172839,28.333333333333332,0)" xlink:href="#aT"/><use transform="matrix(0.06172839506172839,0,0,0.06172839506172839,34.50617283950617,0)" xlink:href="#aU"/><use transform="matrix(0.06172839506172839,0,0,0.06172839506172839,46.85185185185185,0)" xlink:href="#ba"/><use transform="matrix(0.06172839506172839,0,0,0.06172839506172839,57.96296296296296,0)" xlink:href="#aT"/></g><path d="M114-163C36-179 61-72 57 0H25l-1-190h30c1 12-1 29 2 39 6-27 23-49 58-41v29" id="bb"/><g id="p"><use transform="matrix(0.06172839506172839,0,0,0.06172839506172839,0,0)" xlink:href="#ba"/><use transform="matrix(0.06172839506172839,0,0,0.06172839506172839,11.11111111111111,0)" xlink:href="#aU"/><use transform="matrix(0.06172839506172839,0,0,0.06172839506172839,23.45679012345679,0)" xlink:href="#aR"/><use transform="matrix(0.06172839506172839,0,0,0.06172839506172839,28.333333333333336,0)" xlink:href="#aR"/><use transform="matrix(0.06172839506172839,0,0,0.06172839506172839,33.20987654320988,0)" xlink:href="#aQ"/><use transform="matrix(0.06172839506172839,0,0,0.06172839506172839,45.55555555555556,0)" xlink:href="#aR"/><use transform="matrix(0.06172839506172839,0,0,0.06172839506172839,50.4320987654321,0)" xlink:href="#aS"/><use transform="matrix(0.06172839506172839,0,0,0.06172839506172839,62.77777777777778,0)" xlink:href="#bb"/></g><g id="q"><use transform="matrix(0.06172839506172839,0,0,0.06172839506172839,0,0)" xlink:href="#aP"/><use transform="matrix(0.06172839506172839,0,0,0.06172839506172839,18.456790123456788,0)" xlink:href="#aS"/><use transform="matrix(0.06172839506172839,0,0,0.06172839506172839,30.80246913580247,0)" xlink:href="#aX"/><use transform="matrix(0.06172839506172839,0,0,0.06172839506172839,41.91358024691358,0)" xlink:href="#aX"/></g><filter id="n" filterUnits="objectBoundingBox" x="-.02" y="-.04" width="1.04" height="1.2"><feOffset result="offOut" in="SourceAlpha" dy="3"/><feGaussianBlur result="blurOut" in="offOut" stdDeviation="2.5"/><feColorMatrix result="colorOut" in="blurOut" values="0 0 0 0 0 0 0 0 0 0 0 0 0 0 0 0 0 0 0.5019607843137255 0"/><feBlend in="SourceGraphic" in2="colorOut"/></filter><path d="M33 0v-248h34V0H33" id="bc"/><path d="M117-194c89-4 53 116 60 194h-32v-121c0-31-8-49-39-48C34-167 62-67 57 0H25l-1-190h30c1 10-1 24 2 32 11-22 29-35 61-36" id="bd"/><path d="M108 0H70L1-190h34L89-25l56-165h34" id="be"/><path d="M9 0v-24l116-142H16v-24h144v24L44-24h123V0H9" id="bf"/><g id="r"><use transform="matrix(0.06172839506172839,0,0,0.06172839506172839,0,0)" xlink:href="#bc"/><use transform="matrix(0.06172839506172839,0,0,0.06172839506172839,6.172839506172839,0)" xlink:href="#bd"/><use transform="matrix(0.06172839506172839,0,0,0.06172839506172839,18.51851851851852,0)" xlink:href="#aV"/><use transform="matrix(0.06172839506172839,0,0,0.06172839506172839,30.864197530864196,0)" xlink:href="#aO"/><use transform="matrix(0.06172839506172839,0,0,0.06172839506172839,35.74074074074074,0)" xlink:href="#be"/><use transform="matrix(0.06172839506172839,0,0,0.06172839506172839,46.85185185185185,0)" xlink:href="#aO"/><use transform="matrix(0.06172839506172839,0,0,0.06172839506172839,51.72839506172839,0)" xlink:href="#aV"/><use transform="matrix(0.06172839506172839,0,0,0.06172839506172839,64.07407407407408,0)" xlink:href="#aQ"/><use transform="matrix(0.06172839506172839,0,0,0.06172839506172839,76.41975308641976,0)" xlink:href="#aS"/><use transform="matrix(0.06172839506172839,0,0,0.06172839506172839,88.76543209876544,0)" xlink:href="#aR"/><use transform="matrix(0.06172839506172839,0,0,0.06172839506172839,93.64197530864199,0)" xlink:href="#aO"/><use transform="matrix(0.06172839506172839,0,0,0.06172839506172839,98.51851851851853,0)" xlink:href="#bf"/><use transform="matrix(0.06172839506172839,0,0,0.06172839506172839,109.62962962962965,0)" xlink:href="#aU"/></g><g id="s"><use transform="matrix(0.06172839506172839,0,0,0.06172839506172839,0,0)" xlink:href="#ba"/><use transform="matrix(0.06172839506172839,0,0,0.06172839506172839,11.11111111111111,0)" xlink:href="#aU"/><use transform="matrix(0.06172839506172839,0,0,0.06172839506172839,23.45679012345679,0)" xlink:href="#aR"/><use transform="matrix(0.06172839506172839,0,0,0.06172839506172839,28.333333333333336,0)" xlink:href="#aR"/><use transform="matrix(0.06172839506172839,0,0,0.06172839506172839,33.20987654320988,0)" xlink:href="#aX"/></g><g id="v"><use transform="matrix(0.06172839506172839,0,0,0.06172839506172839,0,0)" xlink:href="#aN"/><use transform="matrix(0.06172839506172839,0,0,0.06172839506172839,14.814814814814813,0)" xlink:href="#aT"/><use transform="matrix(0.06172839506172839,0,0,0.06172839506172839,20.98765432098765,0)" xlink:href="#aS"/><use transform="matrix(0.06172839506172839,0,0,0.06172839506172839,33.33333333333333,0)" xlink:href="#bb"/><use transform="matrix(0.06172839506172839,0,0,0.06172839506172839,40.679012345679006,0)" xlink:href="#aT"/></g><filter id="t" filterUnits="objectBoundingBox" x="-.04" y="-.03" width="1.07" height="1.15"><feOffset result="offOut" in="SourceAlpha" dy="3"/><feGaussianBlur result="blurOut" in="offOut" stdDeviation="2.5"/><feColorMatrix result="colorOut" in="blurOut" values="0 0 0 0 0 0 0 0 0 0 0 0 0 0 0 0 0 0 0.5019607843137255 0"/><feBlend in="SourceGraphic" in2="colorOut"/></filter><path d="M63-220v92h138v28H63V0H30v-248h175v28H63" id="bg"/><g id="w"><use transform="matrix(0.06172839506172839,0,0,0.06172839506172839,0,0)" xlink:href="#bg"/><use transform="matrix(0.06172839506172839,0,0,0.06172839506172839,13.518518518518517,0)" xlink:href="#aU"/><use transform="matrix(0.06172839506172839,0,0,0.06172839506172839,25.864197530864196,0)" xlink:href="#aS"/><use transform="matrix(0.06172839506172839,0,0,0.06172839506172839,38.20987654320987,0)" xlink:href="#aT"/><use transform="matrix(0.06172839506172839,0,0,0.06172839506172839,44.382716049382715,0)" xlink:href="#aQ"/><use transform="matrix(0.06172839506172839,0,0,0.06172839506172839,56.72839506172839,0)" xlink:href="#bb"/><use transform="matrix(0.06172839506172839,0,0,0.06172839506172839,64.07407407407408,0)" xlink:href="#aU"/></g><path d="M141 0L90-78 38 0H4l68-98-65-92h35l48 74 47-74h35l-64 92 68 98h-35" id="bh"/><path d="M100-194c62-1 85 37 85 99 1 63-27 99-86 99S16-35 15-95c0-66 28-99 85-99zM99-20c44 1 53-31 53-75 0-43-8-75-51-75s-53 32-53 75 10 74 51 75" id="bi"/><g id="x"><use transform="matrix(0.06172839506172839,0,0,0.06172839506172839,0,0)" xlink:href="#aU"/><use transform="matrix(0.06172839506172839,0,0,0.06172839506172839,12.345679012345679,0)" xlink:href="#bh"/><use transform="matrix(0.06172839506172839,0,0,0.06172839506172839,23.45679012345679,0)" xlink:href="#aT"/><use transform="matrix(0.06172839506172839,0,0,0.06172839506172839,29.62962962962963,0)" xlink:href="#bb"/><use transform="matrix(0.06172839506172839,0,0,0.06172839506172839,36.97530864197531,0)" xlink:href="#aS"/><use transform="matrix(0.06172839506172839,0,0,0.06172839506172839,49.32098765432099,0)" xlink:href="#ba"/><use transform="matrix(0.06172839506172839,0,0,0.06172839506172839,60.4320987654321,0)" xlink:href="#aT"/><use transform="matrix(0.06172839506172839,0,0,0.06172839506172839,66.60493827160494,0)" xlink:href="#aO"/><use transform="matrix(0.06172839506172839,0,0,0.06172839506172839,71.48148148148148,0)" xlink:href="#bi"/><use transform="matrix(0.06172839506172839,0,0,0.06172839506172839,83.82716049382717,0)" xlink:href="#bd"/></g><path d="M30 0v-248h187v28H63v79h144v27H63v87h162V0H30" id="bj"/><g id="y"><use transform="matrix(0.06172839506172839,0,0,0.06172839506172839,0,0)" xlink:href="#bj"/><use transform="matrix(0.06172839506172839,0,0,0.06172839506172839,14.814814814814813,0)" xlink:href="#bd"/><use transform="matrix(0.06172839506172839,0,0,0.06172839506172839,27.160493827160494,0)" xlink:href="#aV"/></g><path d="M143 4C61 4 22-44 18-125c-5-107 100-154 193-111 17 8 29 25 37 43l-32 9c-13-25-37-40-76-40-61 0-88 39-88 99 0 61 29 100 91 101 35 0 62-11 79-27v-45h-74v-28h105v86C228-13 192 4 143 4" id="bk"/><path d="M127-220V0H93v-220H8v-28h204v28h-85" id="bl"/><path d="M197 0v-115H63V0H30v-248h33v105h134v-105h34V0h-34" id="bm"/><path d="M232-93c-1 65-40 97-104 97C67 4 28-28 28-90v-158h33c8 89-33 224 67 224 102 0 64-133 71-224h33v155" id="bn"/><path d="M160-131c35 5 61 23 61 61C221 17 115-2 30 0v-248c76 3 177-17 177 60 0 33-19 50-47 57zm-97-11c50-1 110 9 110-42 0-47-63-36-110-37v79zm0 115c55-2 124 14 124-45 0-56-70-42-124-44v89" id="bo"/><g id="z"><use transform="matrix(0.06172839506172839,0,0,0.06172839506172839,0,0)" xlink:href="#bk"/><use transform="matrix(0.06172839506172839,0,0,0.06172839506172839,17.28395061728395,0)" xlink:href="#bc"/><use transform="matrix(0.06172839506172839,0,0,0.06172839506172839,23.456790123456788,0)" xlink:href="#bl"/><use transform="matrix(0.06172839506172839,0,0,0.06172839506172839,36.9753086419753,0)" xlink:href="#bm"/><use transform="matrix(0.06172839506172839,0,0,0.06172839506172839,52.962962962962955,0)" xlink:href="#bn"/><use transform="matrix(0.06172839506172839,0,0,0.06172839506172839,68.9506172839506,0)" xlink:href="#bo"/></g><path d="M30-248c87 1 191-15 191 75 0 78-77 80-158 76V0H30v-248zm33 125c57 0 124 11 124-50 0-59-68-47-124-48v98" id="bp"/><path d="M115-194c55 1 70 41 70 98S169 2 115 4C84 4 66-9 55-30l1 105H24l-1-265h31l2 30c10-21 28-34 59-34zm-8 174c40 0 45-34 45-75s-6-73-45-74c-42 0-51 32-51 76 0 43 10 73 51 73" id="bq"/><g id="A"><use transform="matrix(0.06172839506172839,0,0,0.06172839506172839,0,0)" xlink:href="#bp"/><use transform="matrix(0.06172839506172839,0,0,0.06172839506172839,14.814814814814813,0)" xlink:href="#bb"/><use transform="matrix(0.06172839506172839,0,0,0.06172839506172839,22.160493827160494,0)" xlink:href="#aU"/><use transform="matrix(0.06172839506172839,0,0,0.06172839506172839,34.50617283950617,0)" xlink:href="#bq"/><use transform="matrix(0.06172839506172839,0,0,0.06172839506172839,46.85185185185185,0)" xlink:href="#bb"/><use transform="matrix(0.06172839506172839,0,0,0.06172839506172839,54.197530864197525,0)" xlink:href="#bi"/><use transform="matrix(0.06172839506172839,0,0,0.06172839506172839,66.5432098765432,0)" xlink:href="#ba"/><use transform="matrix(0.06172839506172839,0,0,0.06172839506172839,77.65432098765432,0)" xlink:href="#aU"/><use transform="matrix(0.06172839506172839,0,0,0.06172839506172839,90,0)" xlink:href="#aX"/><use transform="matrix(0.06172839506172839,0,0,0.06172839506172839,101.11111111111111,0)" xlink:href="#aX"/><use transform="matrix(0.06172839506172839,0,0,0.06172839506172839,112.22222222222223,0)" xlink:href="#aO"/><use transform="matrix(0.06172839506172839,0,0,0.06172839506172839,117.09876543209877,0)" xlink:href="#bd"/><use transform="matrix(0.06172839506172839,0,0,0.06172839506172839,129.44444444444446,0)" xlink:href="#aW"/></g><path d="M212-179c-10-28-35-45-73-45-59 0-87 40-87 99 0 60 29 101 89 101 43 0 62-24 78-52l27 14C228-24 195 4 139 4 59 4 22-46 18-125c-6-104 99-153 187-111 19 9 31 26 39 46" id="br"/><path d="M106-169C34-169 62-67 57 0H25v-261h32l-1 103c12-21 28-36 61-36 89 0 53 116 60 194h-32v-121c2-32-8-49-39-48" id="bs"/><path d="M143 0L79-87 56-68V0H24v-261h32v163l83-92h37l-77 82L181 0h-38" id="bt"/><g id="B"><use transform="matrix(0.06172839506172839,0,0,0.06172839506172839,0,0)" xlink:href="#br"/><use transform="matrix(0.06172839506172839,0,0,0.06172839506172839,15.987654320987653,0)" xlink:href="#bs"/><use transform="matrix(0.06172839506172839,0,0,0.06172839506172839,28.333333333333332,0)" xlink:href="#aU"/><use transform="matrix(0.06172839506172839,0,0,0.06172839506172839,40.67901234567901,0)" xlink:href="#ba"/><use transform="matrix(0.06172839506172839,0,0,0.06172839506172839,51.79012345679013,0)" xlink:href="#bt"/></g><path d="M179-190L93 31C79 59 56 82 12 73V49c39 6 53-20 64-50L1-190h34L92-34l54-156h33" id="bu"/><g id="C"><use transform="matrix(0.06172839506172839,0,0,0.06172839506172839,0,0)" xlink:href="#aS"/><use transform="matrix(0.06172839506172839,0,0,0.06172839506172839,12.345679012345679,0)" xlink:href="#ba"/><use transform="matrix(0.06172839506172839,0,0,0.06172839506172839,23.45679012345679,0)" xlink:href="#ba"/><use transform="matrix(0.06172839506172839,0,0,0.06172839506172839,34.5679012345679,0)" xlink:href="#aQ"/><use transform="matrix(0.06172839506172839,0,0,0.06172839506172839,46.913580246913575,0)" xlink:href="#bb"/><use transform="matrix(0.06172839506172839,0,0,0.06172839506172839,54.25925925925925,0)" xlink:href="#aS"/><use transform="matrix(0.06172839506172839,0,0,0.06172839506172839,66.60493827160494,0)" xlink:href="#ba"/><use transform="matrix(0.06172839506172839,0,0,0.06172839506172839,77.71604938271605,0)" xlink:href="#bu"/></g><g id="F"><use transform="matrix(0.06172839506172839,0,0,0.06172839506172839,0,0)" xlink:href="#br"/><use transform="matrix(0.06172839506172839,0,0,0.06172839506172839,15.987654320987653,0)" xlink:href="#aQ"/><use transform="matrix(0.06172839506172839,0,0,0.06172839506172839,28.333333333333332,0)" xlink:href="#bb"/><use transform="matrix(0.06172839506172839,0,0,0.06172839506172839,35.67901234567901,0)" xlink:href="#aS"/><use transform="matrix(0.06172839506172839,0,0,0.06172839506172839,48.02469135802469,0)" xlink:href="#aT"/><use transform="matrix(0.06172839506172839,0,0,0.06172839506172839,54.19753086419753,0)" xlink:href="#aU"/><use transform="matrix(0.06172839506172839,0,0,0.06172839506172839,66.54320987654322,0)" xlink:href="#aV"/></g><g id="G"><use transform="matrix(0.06172839506172839,0,0,0.06172839506172839,0,0)" xlink:href="#aO"/><use transform="matrix(0.06172839506172839,0,0,0.06172839506172839,4.876543209876543,0)" xlink:href="#aP"/><use transform="matrix(0.06172839506172839,0,0,0.06172839506172839,23.33333333333333,0)" xlink:href="#aS"/><use transform="matrix(0.06172839506172839,0,0,0.06172839506172839,35.679012345679006,0)" xlink:href="#aW"/><use transform="matrix(0.06172839506172839,0,0,0.06172839506172839,48.02469135802468,0)" xlink:href="#aU"/><use transform="matrix(0.06172839506172839,0,0,0.06172839506172839,60.37037037037036,0)" xlink:href="#aX"/></g><path d="M87 75C49 33 22-17 22-94c0-76 28-126 65-167h31c-38 41-64 92-64 168S80 34 118 75H87" id="bv"/><path d="M16-82v-28h88v28H16" id="bw"/><path d="M33-261c38 41 65 92 65 168S71 34 33 75H2C39 34 66-17 66-93S39-220 2-261h31" id="bx"/><g id="H"><use transform="matrix(0.06172839506172839,0,0,0.06172839506172839,0,0)" xlink:href="#bv"/><use transform="matrix(0.06172839506172839,0,0,0.06172839506172839,7.345679012345679,0)" xlink:href="#aW"/><use transform="matrix(0.06172839506172839,0,0,0.06172839506172839,19.691358024691358,0)" xlink:href="#bb"/><use transform="matrix(0.06172839506172839,0,0,0.06172839506172839,27.037037037037038,0)" xlink:href="#bi"/><use transform="matrix(0.06172839506172839,0,0,0.06172839506172839,39.382716049382715,0)" xlink:href="#aQ"/><use transform="matrix(0.06172839506172839,0,0,0.06172839506172839,51.72839506172839,0)" xlink:href="#bd"/><use transform="matrix(0.06172839506172839,0,0,0.06172839506172839,64.07407407407408,0)" xlink:href="#aV"/><use transform="matrix(0.06172839506172839,0,0,0.06172839506172839,76.41975308641976,0)" xlink:href="#bw"/><use transform="matrix(0.06172839506172839,0,0,0.06172839506172839,83.76543209876544,0)" xlink:href="#aT"/><use transform="matrix(0.06172839506172839,0,0,0.06172839506172839,89.93827160493828,0)" xlink:href="#bb"/><use transform="matrix(0.06172839506172839,0,0,0.06172839506172839,97.28395061728396,0)" xlink:href="#aQ"/><use transform="matrix(0.06172839506172839,0,0,0.06172839506172839,109.62962962962965,0)" xlink:href="#aT"/><use transform="matrix(0.06172839506172839,0,0,0.06172839506172839,115.80246913580248,0)" xlink:href="#bs"/><use transform="matrix(0.06172839506172839,0,0,0.06172839506172839,128.14814814814815,0)" xlink:href="#bx"/></g><filter id="D" filterUnits="objectBoundingBox" x="-.02" y="-.02" width="1.05" height="1.08"><feOffset result="offOut" in="SourceAlpha" dy="3"/><feGaussianBlur result="blurOut" in="offOut" stdDeviation="2.5"/><feColorMatrix result="colorOut" in="blurOut" values="0 0 0 0 0 0 0 0 0 0 0 0 0 0 0 0 0 0 0.5019607843137255 0"/><feBlend in="SourceGraphic" in2="colorOut"/></filter><g id="J"><use transform="matrix(0.06172839506172839,0,0,0.06172839506172839,0,0)" xlink:href="#aY"/><use transform="matrix(0.06172839506172839,0,0,0.06172839506172839,15.987654320987653,0)" xlink:href="#aU"/><use transform="matrix(0.06172839506172839,0,0,0.06172839506172839,28.333333333333332,0)" xlink:href="#bq"/><use transform="matrix(0.06172839506172839,0,0,0.06172839506172839,40.67901234567901,0)" xlink:href="#bi"/><use transform="matrix(0.06172839506172839,0,0,0.06172839506172839,53.02469135802469,0)" xlink:href="#bb"/><use transform="matrix(0.06172839506172839,0,0,0.06172839506172839,60.37037037037037,0)" xlink:href="#aT"/><use transform="matrix(0.06172839506172839,0,0,0.06172839506172839,66.5432098765432,0)" xlink:href="#aX"/></g><filter id="I" filterUnits="objectBoundingBox" x="-.03" y="-.02" width="1.06" height="1.09"><feOffset result="offOut" in="SourceAlpha" dy="3"/><feGaussianBlur result="blurOut" in="offOut" stdDeviation="2.5"/><feColorMatrix result="colorOut" in="blurOut" values="0 0 0 0 0 0 0 0 0 0 0 0 0 0 0 0 0 0 0.5019607843137255 0"/><feBlend in="SourceGraphic" in2="colorOut"/></filter><path d="M115-194c53 0 69 39 70 98 0 66-23 100-70 100C84 3 66-7 56-30L54 0H23l1-261h32v101c10-23 28-34 59-34zm-8 174c40 0 45-34 45-75 0-40-5-75-45-74-42 0-51 32-51 76 0 43 10 73 51 73" id="by"/><g id="L"><use transform="matrix(0.06172839506172839,0,0,0.06172839506172839,0,0)" xlink:href="#bp"/><use transform="matrix(0.06172839506172839,0,0,0.06172839506172839,14.814814814814813,0)" xlink:href="#aQ"/><use transform="matrix(0.06172839506172839,0,0,0.06172839506172839,27.160493827160494,0)" xlink:href="#by"/><use transform="matrix(0.06172839506172839,0,0,0.06172839506172839,39.50617283950617,0)" xlink:href="#aR"/><use transform="matrix(0.06172839506172839,0,0,0.06172839506172839,44.382716049382715,0)" xlink:href="#aO"/><use transform="matrix(0.06172839506172839,0,0,0.06172839506172839,49.25925925925926,0)" xlink:href="#ba"/></g><g id="M"><use transform="matrix(0.06172839506172839,0,0,0.06172839506172839,0,0)" xlink:href="#aO"/><use transform="matrix(0.06172839506172839,0,0,0.06172839506172839,4.876543209876543,0)" xlink:href="#aP"/><use transform="matrix(0.06172839506172839,0,0,0.06172839506172839,23.33333333333333,0)" xlink:href="#aS"/><use transform="matrix(0.06172839506172839,0,0,0.06172839506172839,35.679012345679006,0)" xlink:href="#aW"/><use transform="matrix(0.06172839506172839,0,0,0.06172839506172839,48.02469135802468,0)" xlink:href="#aU"/></g><g id="N"><use transform="matrix(0.06172839506172839,0,0,0.06172839506172839,0,0)" xlink:href="#aX"/><use transform="matrix(0.06172839506172839,0,0,0.06172839506172839,11.11111111111111,0)" xlink:href="#aU"/><use transform="matrix(0.06172839506172839,0,0,0.06172839506172839,23.45679012345679,0)" xlink:href="#aT"/><use transform="matrix(0.06172839506172839,0,0,0.06172839506172839,29.62962962962963,0)" xlink:href="#aX"/></g><filter id="K" filterUnits="objectBoundingBox" x="-.04" y="-.02" width="1.08" height="1.08"><feOffset result="offOut" in="SourceAlpha" dy="3"/><feGaussianBlur result="blurOut" in="offOut" stdDeviation="2.5"/><feColorMatrix result="colorOut" in="blurOut" values="0 0 0 0 0 0 0 0 0 0 0 0 0 0 0 0 0 0 0.5019607843137255 0"/><feBlend in="SourceGraphic" in2="colorOut"/></filter><g id="P"><use transform="matrix(0.06172839506172839,0,0,0.06172839506172839,0,0)" xlink:href="#br"/><use transform="matrix(0.06172839506172839,0,0,0.06172839506172839,15.987654320987653,0)" xlink:href="#bu"/><use transform="matrix(0.06172839506172839,0,0,0.06172839506172839,27.098765432098766,0)" xlink:href="#aT"/><use transform="matrix(0.06172839506172839,0,0,0.06172839506172839,33.27160493827161,0)" xlink:href="#bi"/><use transform="matrix(0.06172839506172839,0,0,0.06172839506172839,45.617283950617285,0)" xlink:href="#aR"/><use transform="matrix(0.06172839506172839,0,0,0.06172839506172839,50.49382716049383,0)" xlink:href="#bi"/><use transform="matrix(0.06172839506172839,0,0,0.06172839506172839,62.839506172839506,0)" xlink:href="#aW"/><use transform="matrix(0.06172839506172839,0,0,0.06172839506172839,75.18518518518519,0)" xlink:href="#bu"/></g><path d="M234-2c-28 10-62 0-77-18C117 19 8 12 13-65c3-43 29-61 60-76-25-40-17-114 47-108 35 3 59 15 59 50 0 44-40 53-71 69 14 26 32 50 51 72 14-21 24-43 30-72l26 8c-9 33-21 57-38 82 13 13 33 22 57 15v23zM97-151c25-10 52-18 56-48-1-18-13-29-33-29-42 0-39 50-23 77zM42-66c-3 51 71 58 98 28-20-24-41-51-56-80-23 10-40 24-42 52" id="bz"/><use transform="matrix(0.06172839506172839,0,0,0.06172839506172839,0,0)" xlink:href="#bz" id="Q"/><g id="R"><use transform="matrix(0.06172839506172839,0,0,0.06172839506172839,0,0)" xlink:href="#br"/><use transform="matrix(0.06172839506172839,0,0,0.06172839506172839,15.987654320987653,0)" xlink:href="#bi"/><use transform="matrix(0.06172839506172839,0,0,0.06172839506172839,28.333333333333332,0)" xlink:href="#aP"/><use transform="matrix(0.06172839506172839,0,0,0.06172839506172839,46.79012345679012,0)" xlink:href="#bq"/><use transform="matrix(0.06172839506172839,0,0,0.06172839506172839,59.1358024691358,0)" xlink:href="#aQ"/><use transform="matrix(0.06172839506172839,0,0,0.06172839506172839,71.48148148148148,0)" xlink:href="#aT"/><use transform="matrix(0.06172839506172839,0,0,0.06172839506172839,77.65432098765432,0)" xlink:href="#aU"/><use transform="matrix(0.06172839506172839,0,0,0.06172839506172839,90,0)" xlink:href="#bb"/></g><g id="S"><use transform="matrix(0.06172839506172839,0,0,0.06172839506172839,0,0)" xlink:href="#be"/><use transform="matrix(0.06172839506172839,0,0,0.06172839506172839,11.11111111111111,0)" xlink:href="#aO"/><use transform="matrix(0.06172839506172839,0,0,0.06172839506172839,15.987654320987653,0)" xlink:href="#aX"/><use transform="matrix(0.06172839506172839,0,0,0.06172839506172839,27.098765432098766,0)" xlink:href="#aO"/><use transform="matrix(0.06172839506172839,0,0,0.06172839506172839,31.975308641975307,0)" xlink:href="#bi"/><use transform="matrix(0.06172839506172839,0,0,0.06172839506172839,44.32098765432099,0)" xlink:href="#bd"/></g><g id="T"><use transform="matrix(0.06172839506172839,0,0,0.06172839506172839,0,0)" xlink:href="#aR"/><use transform="matrix(0.06172839506172839,0,0,0.06172839506172839,4.876543209876543,0)" xlink:href="#aO"/><use transform="matrix(0.06172839506172839,0,0,0.06172839506172839,9.753086419753085,0)" xlink:href="#aT"/><use transform="matrix(0.06172839506172839,0,0,0.06172839506172839,15.925925925925926,0)" xlink:href="#aU"/><use transform="matrix(0.06172839506172839,0,0,0.06172839506172839,28.2716049382716,0)" xlink:href="#bb"/><use transform="matrix(0.06172839506172839,0,0,0.06172839506172839,35.61728395061728,0)" xlink:href="#aS"/><use transform="matrix(0.06172839506172839,0,0,0.06172839506172839,47.962962962962955,0)" xlink:href="#aT"/><use transform="matrix(0.06172839506172839,0,0,0.06172839506172839,54.1358024691358,0)" xlink:href="#aQ"/><use transform="matrix(0.06172839506172839,0,0,0.06172839506172839,66.48148148148148,0)" xlink:href="#bb"/><use transform="matrix(0.06172839506172839,0,0,0.06172839506172839,73.82716049382717,0)" xlink:href="#aU"/></g><filter id="O" filterUnits="objectBoundingBox" x="-.04" y="-.01" width="1.08" height="1.06"><feOffset result="offOut" in="SourceAlpha" dy="3"/><feGaussianBlur result="blurOut" in="offOut" stdDeviation="2.5"/><feColorMatrix result="colorOut" in="blurOut" values="0 0 0 0 0 0 0 0 0 0 0 0 0 0 0 0 0 0 0.5019607843137255 0"/><feBlend in="SourceGraphic" in2="colorOut"/></filter><path d="M68-38c1 34 0 65-14 84H32c9-13 17-26 17-46H33v-38h35" id="bA"/><g id="V"><use transform="matrix(0.06172839506172839,0,0,0.06172839506172839,0,0)" xlink:href="#bp"/><use transform="matrix(0.06172839506172839,0,0,0.06172839506172839,14.814814814814813,0)" xlink:href="#aS"/><use transform="matrix(0.06172839506172839,0,0,0.06172839506172839,27.160493827160494,0)" xlink:href="#aT"/><use transform="matrix(0.06172839506172839,0,0,0.06172839506172839,33.333333333333336,0)" xlink:href="#bs"/><use transform="matrix(0.06172839506172839,0,0,0.06172839506172839,45.67901234567901,0)" xlink:href="#bi"/><use transform="matrix(0.06172839506172839,0,0,0.06172839506172839,58.02469135802469,0)" xlink:href="#aR"/><use transform="matrix(0.06172839506172839,0,0,0.06172839506172839,62.901234567901234,0)" xlink:href="#bi"/><use transform="matrix(0.06172839506172839,0,0,0.06172839506172839,75.24691358024691,0)" xlink:href="#aW"/><use transform="matrix(0.06172839506172839,0,0,0.06172839506172839,87.5925925925926,0)" xlink:href="#aO"/><use transform="matrix(0.06172839506172839,0,0,0.06172839506172839,92.46913580246914,0)" xlink:href="#aX"/><use transform="matrix(0.06172839506172839,0,0,0.06172839506172839,103.58024691358025,0)" xlink:href="#aT"/><use transform="matrix(0.06172839506172839,0,0,0.06172839506172839,109.75308641975309,0)" xlink:href="#aX"/><use transform="matrix(0.06172839506172839,0,0,0.06172839506172839,120.8641975308642,0)" xlink:href="#bA"/></g><g id="W"><use transform="matrix(0.06172839506172839,0,0,0.06172839506172839,0,0)" xlink:href="#bp"/><use transform="matrix(0.06172839506172839,0,0,0.06172839506172839,14.814814814814813,0)" xlink:href="#bs"/><use transform="matrix(0.06172839506172839,0,0,0.06172839506172839,27.160493827160494,0)" xlink:href="#bu"/><use transform="matrix(0.06172839506172839,0,0,0.06172839506172839,38.27160493827161,0)" xlink:href="#aX"/><use transform="matrix(0.06172839506172839,0,0,0.06172839506172839,49.38271604938272,0)" xlink:href="#aO"/><use transform="matrix(0.06172839506172839,0,0,0.06172839506172839,54.25925925925927,0)" xlink:href="#ba"/><use transform="matrix(0.06172839506172839,0,0,0.06172839506172839,65.37037037037038,0)" xlink:href="#aO"/><use transform="matrix(0.06172839506172839,0,0,0.06172839506172839,70.24691358024693,0)" xlink:href="#aX"/><use transform="matrix(0.06172839506172839,0,0,0.06172839506172839,81.35802469135804,0)" xlink:href="#aT"/><use transform="matrix(0.06172839506172839,0,0,0.06172839506172839,87.53086419753087,0)" xlink:href="#aX"/><use transform="matrix(0.06172839506172839,0,0,0.06172839506172839,98.64197530864199,0)" xlink:href="#bA"/></g><path d="M101-234c-31-9-42 10-38 44h38v23H63V0H32v-167H5v-23h27c-7-52 17-82 69-68v24" id="bB"/><path d="M206 0h-36l-40-164L89 0H53L-1-190h32L70-26l43-164h34l41 164 42-164h31" id="bC"/><g id="X"><use transform="matrix(0.06172839506172839,0,0,0.06172839506172839,0,0)" xlink:href="#aN"/><use transform="matrix(0.06172839506172839,0,0,0.06172839506172839,14.814814814814813,0)" xlink:href="#bi"/><use transform="matrix(0.06172839506172839,0,0,0.06172839506172839,27.160493827160494,0)" xlink:href="#bB"/><use transform="matrix(0.06172839506172839,0,0,0.06172839506172839,33.333333333333336,0)" xlink:href="#aT"/><use transform="matrix(0.06172839506172839,0,0,0.06172839506172839,39.50617283950618,0)" xlink:href="#bC"/><use transform="matrix(0.06172839506172839,0,0,0.06172839506172839,55.49382716049383,0)" xlink:href="#aS"/><use transform="matrix(0.06172839506172839,0,0,0.06172839506172839,67.8395061728395,0)" xlink:href="#bb"/><use transform="matrix(0.06172839506172839,0,0,0.06172839506172839,75.18518518518519,0)" xlink:href="#aU"/></g><path d="M33 0v-38h34V0H33" id="bD"/><g id="Y"><use transform="matrix(0.06172839506172839,0,0,0.06172839506172839,0,0)" xlink:href="#bj"/><use transform="matrix(0.06172839506172839,0,0,0.06172839506172839,14.814814814814813,0)" xlink:href="#bd"/><use transform="matrix(0.06172839506172839,0,0,0.06172839506172839,27.160493827160494,0)" xlink:href="#aW"/><use transform="matrix(0.06172839506172839,0,0,0.06172839506172839,39.50617283950617,0)" xlink:href="#bD"/></g><filter id="U" filterUnits="objectBoundingBox" x="-.04" y="-.01" width="1.07" height="1.05"><feOffset result="offOut" in="SourceAlpha" dy="3"/><feGaussianBlur result="blurOut" in="offOut" stdDeviation="2.5"/><feColorMatrix result="colorOut" in="blurOut" values="0 0 0 0 0 0 0 0 0 0 0 0 0 0 0 0 0 0 0.5019607843137255 0"/><feBlend in="SourceGraphic" in2="colorOut"/></filter><g id="Z"><use transform="matrix(0.06172839506172839,0,0,0.06172839506172839,0,0)" xlink:href="#bp"/><use transform="matrix(0.06172839506172839,0,0,0.06172839506172839,14.814814814814813,0)" xlink:href="#aS"/><use transform="matrix(0.06172839506172839,0,0,0.06172839506172839,27.160493827160494,0)" xlink:href="#bq"/><use transform="matrix(0.06172839506172839,0,0,0.06172839506172839,39.50617283950617,0)" xlink:href="#aU"/><use transform="matrix(0.06172839506172839,0,0,0.06172839506172839,51.85185185185185,0)" xlink:href="#bb"/><use transform="matrix(0.06172839506172839,0,0,0.06172839506172839,59.197530864197525,0)" xlink:href="#aX"/></g><g id="ab"><use transform="matrix(0.06172839506172839,0,0,0.06172839506172839,0,0)" xlink:href="#aZ"/><use transform="matrix(0.06172839506172839,0,0,0.06172839506172839,15.987654320987653,0)" xlink:href="#bi"/><use transform="matrix(0.06172839506172839,0,0,0.06172839506172839,28.333333333333332,0)" xlink:href="#ba"/><use transform="matrix(0.06172839506172839,0,0,0.06172839506172839,39.44444444444444,0)" xlink:href="#aQ"/><use transform="matrix(0.06172839506172839,0,0,0.06172839506172839,51.79012345679012,0)" xlink:href="#aP"/><use transform="matrix(0.06172839506172839,0,0,0.06172839506172839,70.24691358024691,0)" xlink:href="#aU"/><use transform="matrix(0.06172839506172839,0,0,0.06172839506172839,82.5925925925926,0)" xlink:href="#bd"/><use transform="matrix(0.06172839506172839,0,0,0.06172839506172839,94.93827160493828,0)" xlink:href="#aT"/><use transform="matrix(0.06172839506172839,0,0,0.06172839506172839,101.11111111111111,0)" xlink:href="#aS"/><use transform="matrix(0.06172839506172839,0,0,0.06172839506172839,113.4567901234568,0)" xlink:href="#aT"/><use transform="matrix(0.06172839506172839,0,0,0.06172839506172839,119.62962962962963,0)" xlink:href="#aO"/><use transform="matrix(0.06172839506172839,0,0,0.06172839506172839,124.50617283950618,0)" xlink:href="#bi"/><use transform="matrix(0.06172839506172839,0,0,0.06172839506172839,136.85185185185185,0)" xlink:href="#bd"/></g><filter id="aa" filterUnits="objectBoundingBox" x="-.03" y="-.02" width="1.05" height="1.08"><feOffset result="offOut" in="SourceAlpha" dy="3"/><feGaussianBlur result="blurOut" in="offOut" stdDeviation="2.5"/><feColorMatrix result="colorOut" in="blurOut" values="0 0 0 0 0 0 0 0 0 0 0 0 0 0 0 0 0 0 0.5019607843137255 0"/><feBlend in="SourceGraphic" in2="colorOut"/></filter><path d="M137 0h-34L2-248h35l83 218 83-218h36" id="bE"/><g id="ad"><use transform="matrix(0.06172839506172839,0,0,0.06172839506172839,0,0)" xlink:href="#bE"/><use transform="matrix(0.06172839506172839,0,0,0.06172839506172839,14.382716049382715,0)" xlink:href="#aO"/><use transform="matrix(0.06172839506172839,0,0,0.06172839506172839,19.25925925925926,0)" xlink:href="#aV"/><use transform="matrix(0.06172839506172839,0,0,0.06172839506172839,31.604938271604937,0)" xlink:href="#aU"/><use transform="matrix(0.06172839506172839,0,0,0.06172839506172839,43.95061728395061,0)" xlink:href="#bi"/><use transform="matrix(0.06172839506172839,0,0,0.06172839506172839,56.29629629629629,0)" xlink:href="#aX"/></g><filter id="ac" filterUnits="objectBoundingBox" x="-.03" y="-.02" width="1.06" height="1.08"><feOffset result="offOut" in="SourceAlpha" dy="3"/><feGaussianBlur result="blurOut" in="offOut" stdDeviation="2.5"/><feColorMatrix result="colorOut" in="blurOut" values="0 0 0 0 0 0 0 0 0 0 0 0 0 0 0 0 0 0 0.5019607843137255 0"/><feBlend in="SourceGraphic" in2="colorOut"/></filter><g id="af"><use transform="matrix(0.06172839506172839,0,0,0.06172839506172839,0,0)" xlink:href="#bo"/><use transform="matrix(0.06172839506172839,0,0,0.06172839506172839,14.814814814814813,0)" xlink:href="#bb"/><use transform="matrix(0.06172839506172839,0,0,0.06172839506172839,22.160493827160494,0)" xlink:href="#aS"/><use transform="matrix(0.06172839506172839,0,0,0.06172839506172839,34.50617283950617,0)" xlink:href="#aO"/><use transform="matrix(0.06172839506172839,0,0,0.06172839506172839,39.382716049382715,0)" xlink:href="#bd"/><use transform="matrix(0.06172839506172839,0,0,0.06172839506172839,51.72839506172839,0)" xlink:href="#aX"/><use transform="matrix(0.06172839506172839,0,0,0.06172839506172839,62.839506172839506,0)" xlink:href="#aT"/><use transform="matrix(0.06172839506172839,0,0,0.06172839506172839,69.01234567901234,0)" xlink:href="#bi"/><use transform="matrix(0.06172839506172839,0,0,0.06172839506172839,81.35802469135803,0)" xlink:href="#bb"/><use transform="matrix(0.06172839506172839,0,0,0.06172839506172839,88.70370370370371,0)" xlink:href="#aP"/><use transform="matrix(0.06172839506172839,0,0,0.06172839506172839,107.1604938271605,0)" xlink:href="#aO"/><use transform="matrix(0.06172839506172839,0,0,0.06172839506172839,112.03703703703704,0)" xlink:href="#bd"/><use transform="matrix(0.06172839506172839,0,0,0.06172839506172839,124.38271604938272,0)" xlink:href="#aW"/></g><filter id="ae" filterUnits="objectBoundingBox" x="-.03" y="-.02" width="1.06" height="1.08"><feOffset result="offOut" in="SourceAlpha" dy="3"/><feGaussianBlur result="blurOut" in="offOut" stdDeviation="2.5"/><feColorMatrix result="colorOut" in="blurOut" values="0 0 0 0 0 0 0 0 0 0 0 0 0 0 0 0 0 0 0.5019607843137255 0"/><feBlend in="SourceGraphic" in2="colorOut"/></filter><g id="ag"><use transform="matrix(0.06172839506172839,0,0,0.06172839506172839,0,0)" xlink:href="#aZ"/><use transform="matrix(0.06172839506172839,0,0,0.06172839506172839,15.987654320987653,0)" xlink:href="#aO"/><use transform="matrix(0.06172839506172839,0,0,0.06172839506172839,20.864197530864196,0)" xlink:href="#aS"/><use transform="matrix(0.06172839506172839,0,0,0.06172839506172839,33.20987654320987,0)" xlink:href="#aW"/><use transform="matrix(0.06172839506172839,0,0,0.06172839506172839,45.55555555555555,0)" xlink:href="#bb"/><use transform="matrix(0.06172839506172839,0,0,0.06172839506172839,52.90123456790123,0)" xlink:href="#aS"/><use transform="matrix(0.06172839506172839,0,0,0.06172839506172839,65.24691358024691,0)" xlink:href="#aP"/><use transform="matrix(0.06172839506172839,0,0,0.06172839506172839,83.7037037037037,0)" xlink:href="#aP"/><use transform="matrix(0.06172839506172839,0,0,0.06172839506172839,102.16049382716048,0)" xlink:href="#aO"/><use transform="matrix(0.06172839506172839,0,0,0.06172839506172839,107.03703703703702,0)" xlink:href="#bd"/><use transform="matrix(0.06172839506172839,0,0,0.06172839506172839,119.38271604938271,0)" xlink:href="#aW"/></g><path d="M266 0h-40l-56-210L115 0H75L2-248h35L96-30l15-64 43-154h32l59 218 59-218h35" id="bF"/><g id="ai"><use transform="matrix(0.06172839506172839,0,0,0.06172839506172839,0,0)" xlink:href="#bF"/><use transform="matrix(0.06172839506172839,0,0,0.06172839506172839,20.493827160493826,0)" xlink:href="#aU"/><use transform="matrix(0.06172839506172839,0,0,0.06172839506172839,32.839506172839506,0)" xlink:href="#by"/><use transform="matrix(0.06172839506172839,0,0,0.06172839506172839,45.18518518518518,0)" xlink:href="#aX"/><use transform="matrix(0.06172839506172839,0,0,0.06172839506172839,56.29629629629629,0)" xlink:href="#aO"/><use transform="matrix(0.06172839506172839,0,0,0.06172839506172839,61.172839506172835,0)" xlink:href="#aT"/><use transform="matrix(0.06172839506172839,0,0,0.06172839506172839,67.34567901234567,0)" xlink:href="#aU"/></g><filter id="ah" filterUnits="objectBoundingBox" x="-.04" y="-.01" width="1.07" height="1.07"><feOffset result="offOut" in="SourceAlpha" dy="3"/><feGaussianBlur result="blurOut" in="offOut" stdDeviation="2.5"/><feColorMatrix result="colorOut" in="blurOut" values="0 0 0 0 0 0 0 0 0 0 0 0 0 0 0 0 0 0 0.5019607843137255 0"/><feBlend in="SourceGraphic" in2="colorOut"/></filter><path fill="#333" d="M169-182c-1-43-94-46-97-3 18 66 151 10 154 114 3 95-165 93-204 36-6-8-10-19-12-30l50-8c3 46 112 56 116 5-17-69-150-10-154-114-4-87 153-88 188-35 5 8 8 18 10 28" id="bG"/><path fill="#333" d="M115-3C79 11 28 4 28-45v-112H4v-33h27l15-45h31v45h36v33H77v99c-1 23 16 31 38 25v30" id="bH"/><path fill="#333" d="M133-34C117-15 103 5 69 4 32 3 11-16 11-54c-1-60 55-63 116-61 1-26-3-47-28-47-18 1-26 9-28 27l-52-2c7-38 36-58 82-57s74 22 75 68l1 82c-1 14 12 18 25 15v27c-30 8-71 5-69-32zm-48 3c29 0 43-24 42-57-32 0-66-3-65 30 0 17 8 27 23 27" id="bI"/><path fill="#333" d="M195-6C206 82 75 100 31 46c-4-6-6-13-8-21l49-6c3 16 16 24 34 25 40 0 42-37 40-79-11 22-30 35-61 35-53 0-70-43-70-97 0-56 18-96 73-97 30 0 46 14 59 34l2-30h47zm-90-29c32 0 41-27 41-63 0-35-9-62-40-62-32 0-39 29-40 63 0 36 9 62 39 62" id="bJ"/><path fill="#333" d="M185-48c-13 30-37 53-82 52C43 2 14-33 14-96s30-98 90-98c62 0 83 45 84 108H66c0 31 8 55 39 56 18 0 30-7 34-22zm-45-69c5-46-57-63-70-21-2 6-4 13-4 21h74" id="bK"/><g id="aj"><use transform="matrix(0.09876543209876544,0,0,0.09876543209876544,0,0)" xlink:href="#bG"/><use transform="matrix(0.09876543209876544,0,0,0.09876543209876544,23.703703703703706,0)" xlink:href="#bH"/><use transform="matrix(0.09876543209876544,0,0,0.09876543209876544,35.45679012345679,0)" xlink:href="#bI"/><use transform="matrix(0.09876543209876544,0,0,0.09876543209876544,55.20987654320988,0)" xlink:href="#bJ"/><use transform="matrix(0.09876543209876544,0,0,0.09876543209876544,76.8395061728395,0)" xlink:href="#bK"/></g><path fill="#333" d="M24 0v-248h52V0H24" id="bL"/><path fill="#333" d="M35-132v-50h50v50H35zM35 0v-49h50V0H35" id="bM"/><g id="ak"><use transform="matrix(0.09876543209876544,0,0,0.09876543209876544,0,0)" xlink:href="#bL"/><use transform="matrix(0.09876543209876544,0,0,0.09876543209876544,9.876543209876544,0)" xlink:href="#bM"/></g><path fill="#333" d="M24-248c120-7 223 5 221 122C244-46 201 0 124 0H24v-248zM76-40c74 7 117-18 117-86 0-67-45-88-117-82v168" id="bN"/><g id="al"><use transform="matrix(0.09876543209876544,0,0,0.09876543209876544,0,0)" xlink:href="#bN"/><use transform="matrix(0.09876543209876544,0,0,0.09876543209876544,25.58024691358025,0)" xlink:href="#bI"/><use transform="matrix(0.09876543209876544,0,0,0.09876543209876544,45.33333333333334,0)" xlink:href="#bH"/><use transform="matrix(0.09876543209876544,0,0,0.09876543209876544,57.08641975308644,0)" xlink:href="#bI"/></g><path fill="#333" d="M135-194c87-1 58 113 63 194h-50c-7-57 23-157-34-157-59 0-34 97-39 157H25l-1-190h47c2 12-1 28 3 38 12-26 28-41 61-42" id="bO"/><path fill="#333" d="M135-194c53 0 70 44 70 98 0 56-19 98-73 100-31 1-45-17-59-34 3 33 2 69 2 105H25l-1-265h48c2 10 0 23 3 31 11-24 29-35 60-35zM114-30c33 0 39-31 40-66 0-38-9-64-40-64-56 0-55 130 0 130" id="bP"/><path fill="#333" d="M85 4C-2 5 27-109 22-190h50c7 57-23 150 33 157 60-5 35-97 40-157h50l1 190h-47c-2-12 1-28-3-38-12 25-28 42-61 42" id="bQ"/><g id="am"><use transform="matrix(0.09876543209876544,0,0,0.09876543209876544,0,0)" xlink:href="#bL"/><use transform="matrix(0.09876543209876544,0,0,0.09876543209876544,9.876543209876544,0)" xlink:href="#bO"/><use transform="matrix(0.09876543209876544,0,0,0.09876543209876544,31.506172839506174,0)" xlink:href="#bP"/><use transform="matrix(0.09876543209876544,0,0,0.09876543209876544,53.135802469135804,0)" xlink:href="#bQ"/><use transform="matrix(0.09876543209876544,0,0,0.09876543209876544,74.76543209876543,0)" xlink:href="#bH"/></g><g id="an"><use transform="matrix(0.09876543209876544,0,0,0.09876543209876544,0,0)" xlink:href="#bL"/><use transform="matrix(0.09876543209876544,0,0,0.09876543209876544,9.876543209876544,0)" xlink:href="#bL"/><use transform="matrix(0.09876543209876544,0,0,0.09876543209876544,19.75308641975309,0)" xlink:href="#bM"/></g><path fill="#333" d="M24-248c93 1 206-16 204 79-1 75-69 88-152 82V0H24v-248zm52 121c47 0 100 7 100-41 0-47-54-39-100-39v80" id="bR"/><path fill="#333" d="M135-150c-39-12-60 13-60 57V0H25l-1-190h47c2 13-1 29 3 40 6-28 27-53 61-41v41" id="bS"/><path fill="#333" d="M110-194c64 0 96 36 96 99 0 64-35 99-97 99-61 0-95-36-95-99 0-62 34-99 96-99zm-1 164c35 0 45-28 45-65 0-40-10-65-43-65-34 0-45 26-45 65 0 36 10 65 43 65" id="bT"/><path fill="#333" d="M190-63c-7 42-38 67-86 67-59 0-84-38-90-98-12-110 154-137 174-36l-49 2c-2-19-15-32-35-32-30 0-35 28-38 64-6 74 65 87 74 30" id="bU"/><path fill="#333" d="M137-138c1-29-70-34-71-4 15 46 118 7 119 86 1 83-164 76-172 9l43-7c4 19 20 25 44 25 33 8 57-30 24-41C81-84 22-81 20-136c-2-80 154-74 161-7" id="bV"/><path fill="#333" d="M25-224v-37h50v37H25zM25 0v-190h50V0H25" id="bW"/><g id="ao"><use transform="matrix(0.09876543209876544,0,0,0.09876543209876544,0,0)" xlink:href="#bR"/><use transform="matrix(0.09876543209876544,0,0,0.09876543209876544,23.703703703703706,0)" xlink:href="#bS"/><use transform="matrix(0.09876543209876544,0,0,0.09876543209876544,37.53086419753087,0)" xlink:href="#bT"/><use transform="matrix(0.09876543209876544,0,0,0.09876543209876544,59.1604938271605,0)" xlink:href="#bU"/><use transform="matrix(0.09876543209876544,0,0,0.09876543209876544,78.91358024691358,0)" xlink:href="#bK"/><use transform="matrix(0.09876543209876544,0,0,0.09876543209876544,98.66666666666667,0)" xlink:href="#bV"/><use transform="matrix(0.09876543209876544,0,0,0.09876543209876544,118.41975308641976,0)" xlink:href="#bV"/><use transform="matrix(0.09876543209876544,0,0,0.09876543209876544,138.17283950617286,0)" xlink:href="#bW"/><use transform="matrix(0.09876543209876544,0,0,0.09876543209876544,148.04938271604942,0)" xlink:href="#bO"/><use transform="matrix(0.09876543209876544,0,0,0.09876543209876544,169.67901234567904,0)" xlink:href="#bJ"/></g><g id="ap"><use transform="matrix(0.09876543209876544,0,0,0.09876543209876544,0,0)" xlink:href="#bL"/><use transform="matrix(0.09876543209876544,0,0,0.09876543209876544,9.876543209876544,0)" xlink:href="#bL"/><use transform="matrix(0.09876543209876544,0,0,0.09876543209876544,19.75308641975309,0)" xlink:href="#bL"/><use transform="matrix(0.09876543209876544,0,0,0.09876543209876544,29.629629629629633,0)" xlink:href="#bM"/></g><path fill="#333" d="M199 0l-22-63H83L61 0H9l90-248h61L250 0h-51zm-33-102l-36-108c-10 38-24 72-36 108h72" id="bX"/><path fill="#333" d="M25 0v-261h50V0H25" id="bY"/><path fill="#333" d="M123 10C108 53 80 86 19 72V37c35 8 53-11 59-39L3-190h52l48 148c12-52 28-100 44-148h51" id="bZ"/><g id="aq"><use transform="matrix(0.09876543209876544,0,0,0.09876543209876544,0,0)" xlink:href="#bX"/><use transform="matrix(0.09876543209876544,0,0,0.09876543209876544,25.58024691358025,0)" xlink:href="#bO"/><use transform="matrix(0.09876543209876544,0,0,0.09876543209876544,47.20987654320988,0)" xlink:href="#bI"/><use transform="matrix(0.09876543209876544,0,0,0.09876543209876544,66.96296296296296,0)" xlink:href="#bY"/><use transform="matrix(0.09876543209876544,0,0,0.09876543209876544,76.8395061728395,0)" xlink:href="#bZ"/><use transform="matrix(0.09876543209876544,0,0,0.09876543209876544,96.5925925925926,0)" xlink:href="#bV"/><use transform="matrix(0.09876543209876544,0,0,0.09876543209876544,116.34567901234568,0)" xlink:href="#bW"/><use transform="matrix(0.09876543209876544,0,0,0.09876543209876544,126.22222222222223,0)" xlink:href="#bV"/></g></defs></g></svg>
