<svg xmlns="http://www.w3.org/2000/svg" xmlns:xlink="http://www.w3.org/1999/xlink" width="784.62" height="817.11"><g transform="translate(19.999999999999957 27.108971160562824)"><path d="M292.64 669.1V222.24h42V669.1z" fill="#fff"/><path d="M313.64 669.1V222.24h21V669.1z" fill="#fff"/><path d="M466 669.1H292.64V222.24H466zM334.64 669.1V222.24" stroke="#333" stroke-width="2" fill="none"/><use xlink:href="#a" transform="matrix(6.123233995736766e-17,-1,1,6.123233995736766e-17,292.6434745835203,669.0861663867) translate(111.58641975308642 25.444444444444443)"/><use xlink:href="#b" transform="matrix(6.123233995736766e-17,-1,1,6.123233995736766e-17,292.6434745835203,669.0861663867) translate(130.10493827160494 25.444444444444443)"/><use xlink:href="#c" transform="matrix(6.123233995736766e-17,-1,1,6.123233995736766e-17,292.6434745835203,669.0861663867) translate(274.24074074074076 25.444444444444443)"/><path d="M9.7 68h734.92v40H9.7z" fill="#fff"/><path d="M9.7 88h734.92v20H9.7z" fill="#fff"/><path d="M9.7 770V68h734.92v702zM9.7 108h734.92M124.7 68v702M275 68v702M490.24 68v702M625.9 68v702" stroke="#333" stroke-width="2" fill="none"/><use xlink:href="#d" transform="matrix(1,0,0,1,9.70435631900125,68) translate(22.48765432098765 23.555555555555557)"/><use xlink:href="#e" transform="matrix(1,0,0,1,124.70435631900125,68) translate(48.9320987654321 23.555555555555557)"/><use xlink:href="#f" transform="matrix(1,0,0,1,275,68) translate(73.45679012345678 23.555555555555557)"/><use xlink:href="#g" transform="matrix(1,0,0,1,490.23557589173936,68) translate(34.04938271604938 23.555555555555557)"/><use xlink:href="#h" transform="matrix(1,0,0,1,625.9073743521997,68) translate(5.7962962962962905 23.555555555555557)"/><path d="M169.1 155.7h86.72l-21.68 63.55h-86.72z" stroke="#333" stroke-width="2" fill="#fff"/><use xlink:href="#i" transform="matrix(1,0,0,1,147.41931828032335,155.69274029509737) translate(18.072901234567897 26.22222222222222)"/><use xlink:href="#j" transform="matrix(1,0,0,1,147.41931828032335,155.69274029509737) translate(21.4124074074074 47.55555555555556)"/><path d="M170.84 299.25h82.07l-20.5 72.55H150.3z" stroke="#333" stroke-width="2" fill="#fff"/><use xlink:href="#k" transform="matrix(1,0,0,1,150.32377818908446,299.248439542283) translate(35.78277777777778 30.19097222222222)"/><use xlink:href="#j" transform="matrix(1,0,0,1,150.32377818908446,299.248439542283) translate(19.4124074074074 51.52430555555556)"/><path d="M356 324h95v60h-95z" stroke="#333" stroke-width="2" fill="#fff"/><use xlink:href="#l" transform="matrix(1,0,0,1,356,324) translate(6.092592592592588 21.72222222222222)"/><use xlink:href="#m" transform="matrix(1,0,0,1,356,324) translate(62.33950617283951 21.72222222222222)"/><use xlink:href="#n" transform="matrix(1,0,0,1,356,324) translate(26.29012345679012 43.05555555555556)"/><path d="M355 419.04h100v50H355z" stroke="#333" stroke-width="2" fill="#fff"/><use xlink:href="#o" transform="matrix(1,0,0,1,355,419.03997854411296) translate(5.629629629629626 29.84722222222222)"/><use xlink:href="#p" transform="matrix(1,0,0,1,355,419.03997854411296) translate(67.80246913580247 29.84722222222222)"/><path d="M406 130.1c7.18 0 13 11.2 13 25 0 13.82-5.82 25-13 25h-39c-7.18 0-13-11.18-13-25 0-13.8 5.82-25 13-25z" stroke="#333" stroke-width="2" fill="#fff"/><use xlink:href="#q" transform="matrix(1,0,0,1,354.00279916025704,130.1086600361532) translate(32.505 14.222222222222223)"/><use xlink:href="#r" transform="matrix(1,0,0,1,354.00279916025704,130.1086600361532) translate(13.764259259259257 35.55555555555556)"/><path d="M355.88 504.8h95v60h-95z" stroke="#333" stroke-width="2" fill="#fff"/><use xlink:href="#s" transform="matrix(1,0,0,1,355.8817354793495,504.800750585999) translate(19.87037037037037 21.72222222222222)"/><use xlink:href="#t" transform="matrix(1,0,0,1,355.8817354793495,504.800750585999) translate(19.870370370370367 43.05555555555556)"/><path d="M401 706.25c7.18 0 13 11.2 13 25s-5.82 25-13 25h-39c-7.18 0-13-11.2-13-25s5.82-25 13-25z" stroke="#333" stroke-width="2" fill="#fff"/><use xlink:href="#q" transform="matrix(1,0,0,1,349.00279916025704,706.2487825745918) translate(32.505 14.222222222222223)"/><use xlink:href="#u" transform="matrix(1,0,0,1,349.00279916025704,706.2487825745918) translate(16.702530864197527 35.55555555555556)"/><path d="M716.7 244.96c7.72 0 14 10.96 14 24.48s-6.28 24.48-14 24.48h-42c-7.74 0-14-10.96-14-24.48s6.26-24.48 14-24.48z" stroke="#333" stroke-width="2" fill="#fff"/><use xlink:href="#v" transform="matrix(1,0,0,1,660.688689957518,244.95636283327934) translate(7.400061728395061 29.53472222222222)"/><path d="M242.65 335.53h14.85V163.4h96.36" stroke="#000" stroke-width="2" fill="none"/><path d="M242.66 336.53h-.3l.3-1zM353.86 163.4l-14.26 4.63v-9.27z"/><path d="M354.63 162.6l.03.38.3 1.1-16.36 5.33V157.4zm-14.03 4.05l10.03-3.26-10.03-3.26z"/><path d="M102.74 195h36.96v114.24h27.2" stroke="#000" stroke-width="2" fill="none"/><path d="M102.74 196v-2zM166.9 309.24l-14.25 4.64v-9.27z"/><path d="M168.2 308.6l-.4 1.4-16.15 5.25v-12.02zm-14.55 3.9l10.03-3.26-10.03-3.26z"/><path d="M386.5 180.1v28.84h17.2v28.83" stroke="#000" stroke-width="2" fill="none"/><path d="M403.7 237.77l-4.65-14.27h9.28z"/><path d="M404.74 237.77h-2.1l-4.96-15.27h12.02zm-4.3-13.27l3.25 10.03 3.25-10.03z"/><path d="M404.55 469.04l-.63 35.76" stroke="#000" stroke-width="2" fill="none"/><path d="M405.55 469.06l-1-.02h1zM408.8 490.62l-4.88 14.18-4.38-14.35z"/><path d="M410.2 489.64l-5.23 15.16h-2.1l-4.7-15.37zm-6.23 11.93l3.44-9.97-6.5-.12z"/><path d="M403.38 564.8l1 29.6" stroke="#000" stroke-width="2" fill="none"/><path d="M402.38 564.83v-.03h1zM404.37 594.4l-5.1-14.1 9.26-.32z"/><path d="M405.4 594.4h-2.1l-5.45-15.07 12.02-.4zm-4.73-13.16l3.6 9.9 2.9-10.12z"/><path d="M613.24 528.55h34.26V387.5h48.2v-93.58" stroke="#000" stroke-width="2" fill="none"/><path d="M700.32 308.2h-9.27l4.64-14.28z"/><path d="M701.7 309.2h-12.02l4.96-15.28h2.1zm-9.27-2h6.52l-3.26-10.04z"/><path d="M597.62 363.43H610v-94h50.7" stroke="#000" stroke-width="2" fill="none"/><path d="M597.82 364.4l-.2.05v-1.02zM660.7 269.44l-14.28 4.64v-9.28z"/><path d="M660.8 268.42l-.1 1.02.06 1.03-15.34 4.98v-12.02zm-13.38 4.28l10.03-3.26-10.03-3.26z"/><path d="M356.2 237.77h95v60h-95z" stroke="#333" stroke-width="2" fill="#fff"/><use xlink:href="#w" transform="matrix(1,0,0,1,356.1900804758505,237.76897867083966) translate(2.6111111111111143 32.97222222222222)"/><path d="M403.7 297.77l-.2 26.23" stroke="#000" stroke-width="2" fill="none"/><path d="M404.7 297.78h-1 1zM408.24 309.77L403.5 324l-4.53-14.3z"/><path d="M409.62 308.78L404.55 324h-2.1l-4.85-15.3zm-6.1 11.98l3.33-10-6.5-.05z"/><path d="M356.87 594.4h95v60h-95z" stroke="#333" stroke-width="2" fill="#fff"/><use xlink:href="#x" transform="matrix(1,0,0,1,356.868439468159,594.3892172758428) translate(22.339506172839506 21.72222222222222)"/><use xlink:href="#y" transform="matrix(1,0,0,1,356.868439468159,594.3892172758428) translate(11.969135802469133 43.05555555555556)"/><path d="M404.37 654.4v25.92H381.5v25.93" stroke="#000" stroke-width="2" fill="none"/><path d="M381.5 706.25l-4.63-14.27h9.27z"/><path d="M382.55 706.25h-2.1l-4.96-15.27h12zm-4.3-13.27L381.5 703l3.26-10.02z"/><path d="M169.58 421.8h85.44l-21.36 74.98H148.2z" stroke="#333" stroke-width="2" fill="#fff"/><use xlink:href="#z" transform="matrix(1,0,0,1,148.2139346704581,421.8019119413172) translate(59.504999999999995 18.90972222222222)"/><use xlink:href="#A" transform="matrix(1,0,0,1,148.2139346704581,421.8019119413172) translate(21.94944444444444 40.24305555555556)"/><use xlink:href="#B" transform="matrix(1,0,0,1,148.2139346704581,421.8019119413172) translate(18.9124074074074 61.57638888888889)"/><path d="M513.15 155.7h79.12v66.76c-13.2-11.13-21.43-11.13-26.38-11.13-7.92 0-18.47 11.13-26.38 11.13-4.94 0-13.2 0-26.37-11.13z" stroke="#333" stroke-width="2" fill="#fff"/><path d="M517.54 161.58h79.12v66.77c-13.18-11.12-21.43-11.12-26.37-11.12-7.92 0-18.47 11.12-26.38 11.12-4.95 0-13.2 0-26.38-11.12z" stroke="#333" stroke-width="2" fill="#fff"/><path d="M521.94 167.48h79.12v66.76c-13.2-11.12-21.43-11.12-26.38-11.12-7.9 0-18.46 11.12-26.37 11.12-4.93 0-13.17 0-26.36-11.12z" stroke="#333" stroke-width="2" fill="#fff"/><use xlink:href="#C" transform="matrix(1,0,0,1,513.1476569779192,155.69274029509742) translate(12.943271604938262 43.84722222222222)"/><path d="M102.74 226.2c0 4.3-18.97 7.8-42.37 7.8S18 230.5 18 226.2v-62.4c0-4.3 18.97-7.8 42.37-7.8s42.37 3.5 42.37 7.8z" stroke="#333" stroke-width="2" fill="#fff"/><path d="M102.74 163.8c0 4.3-18.97 7.8-42.37 7.8S18 168.1 18 163.8" stroke="#333" stroke-width="2" fill="none"/><use xlink:href="#D" transform="matrix(1,0,0,1,18,176.6) translate(18.35685185185185 14.222222222222223)"/><use xlink:href="#j" transform="matrix(1,0,0,1,18,176.6) translate(13.912407407407406 35.55555555555556)"/><path d="M105.38 723.2c0 3.75-19.65 6.8-43.88 6.8-24.23 0-43.88-3.05-43.88-6.8v-54.5c0-3.77 19.65-6.82 43.88-6.82 24.23 0 43.88 3.05 43.88 6.8z" stroke="#333" stroke-width="2" fill="#fff"/><path d="M105.38 668.7c0 3.75-19.65 6.8-43.88 6.8-24.23 0-43.88-3.05-43.88-6.8" stroke="#333" stroke-width="2" fill="none"/><use xlink:href="#E" transform="matrix(1,0,0,1,17.621072133382086,680.5013858767717) translate(13.412407407407402 29.84722222222222)"/><path d="M509.7 324.15h79.13v66.77c-13.2-11.13-21.43-11.13-26.38-11.13-7.9 0-18.46 11.12-26.37 11.12-4.95 0-13.2 0-26.37-11.13z" stroke="#333" stroke-width="2" fill="#fff"/><path d="M514.1 330.04h79.12v66.77c-13.2-11.12-21.43-11.12-26.37-11.12-7.9 0-18.46 11.13-26.37 11.13-4.95 0-13.2 0-26.38-11.12z" stroke="#333" stroke-width="2" fill="#fff"/><path d="M518.5 335.93h79.12v66.77c-13.2-11.13-21.43-11.13-26.38-11.13-7.9 0-18.46 11.13-26.37 11.13-4.94 0-13.2 0-26.37-11.13z" stroke="#333" stroke-width="2" fill="#fff"/><use xlink:href="#F" transform="matrix(1,0,0,1,509.70672767521796,324.1495473631529) translate(15.881543209876535 43.84722222222222)"/><path d="M498.98 481.06H601.8v80.73c-17.13-13.47-27.84-13.47-34.27-13.47-10.28 0-24 13.46-34.27 13.46-6.43 0-17.14 0-34.28-13.47z" stroke="#333" stroke-width="2" fill="#fff"/><path d="M504.7 488.18H607.5v80.73c-17.14-13.44-27.85-13.44-34.27-13.44-10.3 0-24 13.45-34.28 13.45-6.43 0-17.14 0-34.28-13.44z" stroke="#333" stroke-width="2" fill="#fff"/><path d="M510.4 495.3h102.84v80.73c-17.14-13.45-27.85-13.45-34.28-13.45-10.28 0-24 13.45-34.28 13.45-6.43 0-17.14 0-34.28-13.45z" stroke="#333" stroke-width="2" fill="#fff"/><use xlink:href="#G" transform="matrix(1,0,0,1,498.9791523391877,481.05676771426863) translate(12.116111111111111 49.84722222222222)"/><path d="M528.35 651.54h59.68c4.7 0 8.52 19.18 8.52 42.85 0 23.65-3.82 42.83-8.52 42.83h-59.68L511.3 694.4z" stroke="#333" stroke-width="2" fill="#fff"/><use xlink:href="#H" transform="matrix(1,0,0,1,511.30509483518347,651.5394815183591) translate(18.042037037037034 46.47222222222222)"/><path d="M162.9 571.78h76.57l25.53 32.5-25.53 32.5H162.9l-25.53-32.5z" stroke="#333" stroke-width="2" fill="#fff"/><use xlink:href="#I" transform="matrix(1,0,0,1,137.37269887609824,571.7833548733901) translate(21.140802469135796 36.90972222222222)"/><path d="M162.9 671.85h76.57l25.53 32.5-25.53 32.5H162.9l-25.53-32.5z" stroke="#333" stroke-width="2" fill="#fff"/><use xlink:href="#J" transform="matrix(1,0,0,1,137.37269887609824,671.8526570393251) translate(26.079074074074068 36.90972222222222)"/><path d="M105.38 695.94H115v-74.56h35.05" stroke="#000" stroke-width="2" fill="none"/><path d="M105.87 696.8l-.5.3v-1.17zM150.05 621.38l-14.27 4.64v-9.27z"/><path d="M149.95 620.3l1.36 1.72-16.52 5.37v-12.03zm-13.17 4.34l10.03-3.26-10.02-3.26z"/><path d="M356.08 622.8L255 622.5" stroke="#000" stroke-width="2" fill="none"/><path d="M356.87 621.8v2h-.8v-2z"/><path d="M255 622.5l14.28-4.6-.03 9.28z" stroke="#000" stroke-width="2"/><path d="M404 384l.58 35.04" stroke="#000" stroke-width="2" fill="none"/><path d="M403 384.02V384h1zM404.58 419.04l-4.87-14.2 9.28-.14z"/><path d="M405.63 419.04h-2.1l-5.2-15.16 12-.2zm-4.53-13.2l3.43 9.96 3.1-10.08z"/><path d="M651.24 554.54h76.5v85.7c-12.75-14.27-20.72-14.27-25.5-14.27-7.65 0-17.85 14.28-25.5 14.28-4.8 0-12.75 0-25.5-14.28z" stroke="#333" stroke-width="2" fill="#fff"/><path d="M655.5 562.1H732v85.72c-12.76-14.3-20.73-14.3-25.5-14.3-7.66 0-17.86 14.3-25.5 14.3-4.8 0-12.76 0-25.5-14.3z" stroke="#333" stroke-width="2" fill="#fff"/><path d="M659.74 569.66h76.5v85.72c-12.75-14.3-20.72-14.3-25.5-14.3-7.65 0-17.85 14.3-25.5 14.3-4.8 0-12.75 0-25.5-14.3z" stroke="#333" stroke-width="2" fill="#fff"/><use xlink:href="#K" transform="matrix(1,0,0,1,651.2355758917396,554.5370804016984) translate(11.128456790123453 55.25347222222222)"/><path d="M201.2 636.78v35.07" stroke="#000" stroke-width="2" fill="none"/><path d="M202.2 636.78h-2 2zM201.2 671.85l-4.65-14.26h9.27z"/><path d="M202.24 671.85h-2.1l-4.97-15.26h12.03zm-4.3-13.26l3.25 10.02 3.25-10.03z"/><path d="M596.55 694.4h97.2v-43.05" stroke="#000" stroke-width="2" fill="none"/><path d="M596.55 695.4h-.05l.05-1-.02-1h.02zM698.37 665.6h-9.27l4.64-14.25z"/><path d="M699.75 666.6h-12.03l4.8-14.78 1.97-1.4zm-9.27-2h6.5l-3.24-10.02z"/><path d="M573 392.65v59.85h120.74v102.04" stroke="#000" stroke-width="2" fill="none"/><path d="M574 391.72v.93h-2v-1.04zM693.74 554.54l-4.64-14.27h9.27z"/><path d="M694.8 554.54h-2.12l-4.96-15.27h12.03zm-4.32-13.27l3.26 10.03 3.25-10.03z"/><path d="M572.17 565.27v39.7h79.07" stroke="#000" stroke-width="2" fill="none"/><path d="M573.17 565.27h-2v-.7l2-.8zM651.24 604.96l-14.27 4.63v-9.28z"/><path d="M651.24 603.9v2.1l-15.27 4.97v-12.02zm-13.27 4.32l10.03-3.26-10.03-3.26z"/><path d="M601.06 194.97h94.63v50" stroke="#000" stroke-width="2" fill="none"/><path d="M695.7 244.96l-4.65-14.27h9.27z"/><path d="M696.74 244.96h-2.1l-4.96-15.27h12.02zm-4.3-13.27l3.25 10.02 3.25-10.03z"/><path d="M0 .02h196.85v61.13H0z" fill="none"/><use xlink:href="#L" transform="matrix(1,0,0,1,4.263256414560601e-14,0.02357225268467289) translate(10.972222222222229 35)"/><use xlink:href="#M" transform="matrix(1,0,0,1,4.263256414560601e-14,0.02357225268467289) translate(70.86111111111111 35)"/><use xlink:href="#N" transform="matrix(1,0,0,1,4.263256414560601e-14,0.02357225268467289) translate(88.58333333333334 35)"/><use xlink:href="#O" transform="matrix(1,0,0,1,4.263256414560601e-14,0.02357225268467289) translate(137.36111111111114 35)"/><path d="M187.97.02H460v61.13H187.97z" fill="none"/><use xlink:href="#L" transform="matrix(1,0,0,1,187.96710986703803,0.023572252684676442) translate(16.7222222222222 35)"/><use xlink:href="#P" transform="matrix(1,0,0,1,187.96710986703803,0.023572252684676442) translate(76.61111111111109 35)"/><use xlink:href="#N" transform="matrix(1,0,0,1,187.96710986703803,0.023572252684676442) translate(99.88888888888886 35)"/><use xlink:href="#Q" transform="matrix(1,0,0,1,187.96710986703803,0.023572252684676442) translate(148.66666666666666 35)"/><path d="M451.46-7.1h231.87v75.4H451.46z" fill="none"/><use xlink:href="#L" transform="matrix(1,0,0,1,451.45556333099665,-7.108971160562824) translate(6.194444444444443 42)"/><use xlink:href="#R" transform="matrix(1,0,0,1,451.45556333099665,-7.108971160562824) translate(66.08333333333333 42)"/><use xlink:href="#N" transform="matrix(1,0,0,1,451.45556333099665,-7.108971160562824) translate(94.91666666666666 42)"/><use xlink:href="#S" transform="matrix(1,0,0,1,451.45556333099665,-7.108971160562824) translate(143.69444444444446 42)"/><path d="M60.37 234v63.5h71.83v136.83h33.24" stroke="#000" stroke-width="2" fill="none"/><path d="M60.37 234h-1v-.05zm1 0h-1l1-.02zM165.44 434.33l-14.26 4.63v-9.27z"/><path d="M166.23 433.53l-.5 1.76-15.55 5.04v-12.02zm-14.05 4.06l10.03-3.27-10.02-3.26z"/><path d="M553.66 324.15V233.8" stroke="#000" stroke-width="2" fill="none"/><path d="M558.3 248.06h-9.27l4.63-14.26z"/><path d="M559.67 249.06h-12.02l5.33-16.4 1.17-.6zm-9.27-2h6.52l-3.26-10.03z"/><path d="M556.1 481.06V399.2" stroke="#000" stroke-width="2" fill="none"/><path d="M560.74 413.47h-9.27l4.64-14.26z"/><path d="M562.12 414.47H550.1l5.3-16.3 1.22-.6zm-9.27-2h6.52l-3.26-10.03z"/><path d="M244.34 459.3h13.34v113.2H366.5v20.7" stroke="#000" stroke-width="2" fill="none"/><path d="M244.22 460.3l-.16-.03.28-.98zM366.5 593.2l-4.63-14.28h9.28z"/><path d="M367.17 594.4h-1.32l-5.35-16.48h12.02zm-3.92-14.48l3.26 10.03 3.27-10.03z"/><path d="M105.76 607.37c0 4.2-19.65 7.63-43.88 7.63-24.23 0-43.88-3.42-43.88-7.63v-61.05c0-4.22 19.65-7.63 43.88-7.63 24.23 0 43.88 3.4 43.88 7.62z" stroke="#333" stroke-width="2" fill="#fff"/><path d="M105.76 546.32c0 4.2-19.65 7.63-43.88 7.63-24.23 0-43.88-3.42-43.88-7.63" stroke="#333" stroke-width="2" fill="none"/><use xlink:href="#T" transform="matrix(1,0,0,1,18,558.9487945819018) translate(5.066728395061725 14.222222222222223)"/><use xlink:href="#U" transform="matrix(1,0,0,1,18,558.9487945819018) translate(21.33833333333333 35.55555555555556)"/><path d="M105.5 415.4c0 5.85-19.7 10.6-44 10.6s-44-4.75-44-10.6v-84.8c0-5.85 19.7-10.6 44-10.6s44 4.75 44 10.6z" stroke="#333" stroke-width="2" fill="#fff"/><path d="M105.5 330.6c0 5.85-19.7 10.6-44 10.6s-44-4.75-44-10.6" stroke="#333" stroke-width="2" fill="none"/><use xlink:href="#V" transform="matrix(1,0,0,1,17.5,346.2) translate(22.819814814814812 31.72222222222222)"/><use xlink:href="#W" transform="matrix(1,0,0,1,17.5,346.2) translate(5.511172839506168 53.05555555555556)"/><path d="M201.62 155.7v-11.87h152.96" stroke="#000" stroke-width="2" fill="none"/><path d="M201.62 155.7h-1.04l.07-.26zM354.58 143.83l-14.27 4.64v-9.27z"/><path d="M355.75 143.17l-.45 1.48-16 5.2v-12.03zm-14.44 3.92l10.04-3.27-10.03-3.25z"/><path d="M61.5 426v84h71.95v70.9h21.06" stroke="#000" stroke-width="2" fill="none"/><path d="M61.5 426h-1v-.05zm1 0h-1l1-.05zM154.5 580.9l-14.25 4.63v-9.27z"/><path d="M156.15 580.38l-1.1 1.4-15.8 5.13V574.9zm-14.9 3.78l10.03-3.26-10.03-3.26z"/><path d="M105.76 576.84h11.44v23h22.33M105.76 576.84l-2.87-.9" stroke="#000" stroke-width="2" fill="none"/><path d="M139.53 599.85l-14.27 4.64v-9.28z"/><path d="M141.24 599.36l-1.04 1.33-15.94 5.16v-12.02zm-14.98 3.75l10.03-3.25-10.04-3.26z"/><path d="M553.93 651.54v-77.4" stroke="#000" stroke-width="2" fill="none"/><path d="M553.93 651.54l-4.64-14.27h9.26z"/><path d="M554.98 651.54h-2.1l-4.96-15.27h12.02zm-4.3-13.27l3.25 10.03 3.26-10.03zM554.93 574.13h-2v-.64l2-1z"/><path d="M414.4 725.15h63.1V632.5h44.23v-61.36" stroke="#000" stroke-width="2" fill="none"/><path d="M414.4 726.15h-.82l-.17-2h1zM526.37 585.4h-9.27l4.63-14.26z"/><path d="M522.56 570.44l5.18 15.96h-12.02l5.45-16.75zm-4.1 13.96H525l-3.27-10.03z"/><path d="M201.62 299.25v-80" stroke="#000" stroke-width="2" fill="none"/><path d="M206.25 233.5h-9.27l4.64-14.25z"/><path d="M207.63 234.5H195.6l4.97-15.25h2.1zm-9.27-2h6.52l-3.26-10.02z"/><path d="M265 704.35h48.25V669.1" stroke="#000" stroke-width="2" fill="none"/><path d="M265 705.35h-.8l.8-1-.8-1h.8zM317.9 683.35h-9.3l4.65-14.26z"/><path d="M319.26 684.35h-12.02l4.96-15.26h2.1zm-9.27-2h6.5l-3.25-10.03z"/><defs><path d="M169-182c-1-43-94-46-97-3 18 66 151 10 154 114 3 95-165 93-204 36-6-8-10-19-12-30l50-8c3 46 112 56 116 5-17-69-150-10-154-114-4-87 153-88 188-35 5 8 8 18 10 28" id="X"/><path d="M140-251c80 0 125 45 125 126S219 4 139 4C58 4 15-44 15-125s44-126 125-126zm-1 214c52 0 73-35 73-88 0-50-21-86-72-86-52 0-73 35-73 86s22 88 72 88" id="Y"/><path d="M76-208v77h127v40H76V0H24v-248h183v40H76" id="Z"/><path d="M136-208V0H84v-208H4v-40h212v40h-80" id="aa"/><path d="M275 0h-61l-44-196L126 0H64L0-248h53L97-49l45-199h58l43 199 44-199h52" id="ab"/><path d="M199 0l-22-63H83L61 0H9l90-248h61L250 0h-51zm-33-102l-36-108c-10 38-24 72-36 108h72" id="ac"/><path d="M240-174c0 40-23 61-54 70L253 0h-59l-57-94H76V0H24v-248c93 4 217-23 216 74zM76-134c48-2 112 12 112-38 0-48-66-32-112-35v73" id="ad"/><path d="M24 0v-248h195v40H76v63h132v40H76v65h150V0H24" id="ae"/><g id="b"><use transform="matrix(0.06172839506172839,0,0,0.06172839506172839,0,0)" xlink:href="#X"/><use transform="matrix(0.06172839506172839,0,0,0.06172839506172839,14.814814814814813,0)" xlink:href="#Y"/><use transform="matrix(0.06172839506172839,0,0,0.06172839506172839,32.09876543209876,0)" xlink:href="#Z"/><use transform="matrix(0.06172839506172839,0,0,0.06172839506172839,45.61728395061728,0)" xlink:href="#aa"/><use transform="matrix(0.06172839506172839,0,0,0.06172839506172839,59.1358024691358,0)" xlink:href="#ab"/><use transform="matrix(0.06172839506172839,0,0,0.06172839506172839,78.82716049382715,0)" xlink:href="#ac"/><use transform="matrix(0.06172839506172839,0,0,0.06172839506172839,94.81481481481481,0)" xlink:href="#ad"/><use transform="matrix(0.06172839506172839,0,0,0.06172839506172839,110.80246913580247,0)" xlink:href="#ae"/></g><path d="M24 0v-248h52v208h133V0H24" id="af"/><g id="c"><use transform="matrix(0.06172839506172839,0,0,0.06172839506172839,0,0)" xlink:href="#aa"/><use transform="matrix(0.06172839506172839,0,0,0.06172839506172839,13.08641975308642,0)" xlink:href="#Y"/><use transform="matrix(0.06172839506172839,0,0,0.06172839506172839,30.370370370370367,0)" xlink:href="#Y"/><use transform="matrix(0.06172839506172839,0,0,0.06172839506172839,47.654320987654316,0)" xlink:href="#af"/></g><path d="M110-194c64 0 96 36 96 99 0 64-35 99-97 99-61 0-95-36-95-99 0-62 34-99 96-99zm-1 164c35 0 45-28 45-65 0-40-10-65-43-65-34 0-45 26-45 65 0 36 10 65 43 65" id="ag"/><path d="M85 4C-2 5 27-109 22-190h50c7 57-23 150 33 157 60-5 35-97 40-157h50l1 190h-47c-2-12 1-28-3-38-12 25-28 42-61 42" id="ah"/><path d="M135-150c-39-12-60 13-60 57V0H25l-1-190h47c2 13-1 29 3 40 6-28 27-53 61-41v41" id="ai"/><path d="M190-63c-7 42-38 67-86 67-59 0-84-38-90-98-12-110 154-137 174-36l-49 2c-2-19-15-32-35-32-30 0-35 28-38 64-6 74 65 87 74 30" id="aj"/><path d="M185-48c-13 30-37 53-82 52C43 2 14-33 14-96s30-98 90-98c62 0 83 45 84 108H66c0 31 8 55 39 56 18 0 30-7 34-22zm-45-69c5-46-57-63-70-21-2 6-4 13-4 21h74" id="ak"/><path d="M137-138c1-29-70-34-71-4 15 46 118 7 119 86 1 83-164 76-172 9l43-7c4 19 20 25 44 25 33 8 57-30 24-41C81-84 22-81 20-136c-2-80 154-74 161-7" id="al"/><g id="d"><use transform="matrix(0.04938271604938272,0,0,0.04938271604938272,0,0)" xlink:href="#X"/><use transform="matrix(0.04938271604938272,0,0,0.04938271604938272,11.851851851851853,0)" xlink:href="#ag"/><use transform="matrix(0.04938271604938272,0,0,0.04938271604938272,22.666666666666668,0)" xlink:href="#ah"/><use transform="matrix(0.04938271604938272,0,0,0.04938271604938272,33.48148148148148,0)" xlink:href="#ai"/><use transform="matrix(0.04938271604938272,0,0,0.04938271604938272,40.39506172839506,0)" xlink:href="#aj"/><use transform="matrix(0.04938271604938272,0,0,0.04938271604938272,50.27160493827161,0)" xlink:href="#ak"/><use transform="matrix(0.04938271604938272,0,0,0.04938271604938272,60.14814814814815,0)" xlink:href="#al"/></g><path d="M24 0v-248h52V0H24" id="am"/><path d="M135-194c87-1 58 113 63 194h-50c-7-57 23-157-34-157-59 0-34 97-39 157H25l-1-190h47c2 12-1 28 3 38 12-26 28-41 61-42" id="an"/><path d="M135-194c53 0 70 44 70 98 0 56-19 98-73 100-31 1-45-17-59-34 3 33 2 69 2 105H25l-1-265h48c2 10 0 23 3 31 11-24 29-35 60-35zM114-30c33 0 39-31 40-66 0-38-9-64-40-64-56 0-55 130 0 130" id="ao"/><path d="M115-3C79 11 28 4 28-45v-112H4v-33h27l15-45h31v45h36v33H77v99c-1 23 16 31 38 25v30" id="ap"/><g id="e"><use transform="matrix(0.04938271604938272,0,0,0.04938271604938272,0,0)" xlink:href="#am"/><use transform="matrix(0.04938271604938272,0,0,0.04938271604938272,4.938271604938272,0)" xlink:href="#an"/><use transform="matrix(0.04938271604938272,0,0,0.04938271604938272,15.753086419753087,0)" xlink:href="#ao"/><use transform="matrix(0.04938271604938272,0,0,0.04938271604938272,26.567901234567902,0)" xlink:href="#ah"/><use transform="matrix(0.04938271604938272,0,0,0.04938271604938272,37.382716049382715,0)" xlink:href="#ap"/><use transform="matrix(0.04938271604938272,0,0,0.04938271604938272,43.25925925925926,0)" xlink:href="#al"/></g><path d="M24-248c93 1 206-16 204 79-1 75-69 88-152 82V0H24v-248zm52 121c47 0 100 7 100-41 0-47-54-39-100-39v80" id="aq"/><g id="f"><use transform="matrix(0.04938271604938272,0,0,0.04938271604938272,0,0)" xlink:href="#aq"/><use transform="matrix(0.04938271604938272,0,0,0.04938271604938272,11.851851851851853,0)" xlink:href="#ai"/><use transform="matrix(0.04938271604938272,0,0,0.04938271604938272,18.765432098765434,0)" xlink:href="#ag"/><use transform="matrix(0.04938271604938272,0,0,0.04938271604938272,29.58024691358025,0)" xlink:href="#aj"/><use transform="matrix(0.04938271604938272,0,0,0.04938271604938272,39.45679012345679,0)" xlink:href="#ak"/><use transform="matrix(0.04938271604938272,0,0,0.04938271604938272,49.333333333333336,0)" xlink:href="#al"/><use transform="matrix(0.04938271604938272,0,0,0.04938271604938272,59.20987654320988,0)" xlink:href="#al"/></g><g id="g"><use transform="matrix(0.04938271604938272,0,0,0.04938271604938272,0,0)" xlink:href="#Y"/><use transform="matrix(0.04938271604938272,0,0,0.04938271604938272,13.827160493827162,0)" xlink:href="#ah"/><use transform="matrix(0.04938271604938272,0,0,0.04938271604938272,24.641975308641975,0)" xlink:href="#ap"/><use transform="matrix(0.04938271604938272,0,0,0.04938271604938272,30.518518518518523,0)" xlink:href="#ao"/><use transform="matrix(0.04938271604938272,0,0,0.04938271604938272,41.333333333333336,0)" xlink:href="#ah"/><use transform="matrix(0.04938271604938272,0,0,0.04938271604938272,52.14814814814815,0)" xlink:href="#ap"/><use transform="matrix(0.04938271604938272,0,0,0.04938271604938272,58.0246913580247,0)" xlink:href="#al"/></g><path d="M25-224v-37h50v37H25zM25 0v-190h50V0H25" id="ar"/><g id="h"><use transform="matrix(0.04938271604938272,0,0,0.04938271604938272,0,0)" xlink:href="#ad"/><use transform="matrix(0.04938271604938272,0,0,0.04938271604938272,12.790123456790125,0)" xlink:href="#ak"/><use transform="matrix(0.04938271604938272,0,0,0.04938271604938272,22.66666666666667,0)" xlink:href="#ao"/><use transform="matrix(0.04938271604938272,0,0,0.04938271604938272,33.48148148148149,0)" xlink:href="#ag"/><use transform="matrix(0.04938271604938272,0,0,0.04938271604938272,44.296296296296305,0)" xlink:href="#al"/><use transform="matrix(0.04938271604938272,0,0,0.04938271604938272,54.17283950617284,0)" xlink:href="#ar"/><use transform="matrix(0.04938271604938272,0,0,0.04938271604938272,59.111111111111114,0)" xlink:href="#ap"/><use transform="matrix(0.04938271604938272,0,0,0.04938271604938272,64.98765432098766,0)" xlink:href="#ag"/><use transform="matrix(0.04938271604938272,0,0,0.04938271604938272,75.80246913580247,0)" xlink:href="#ai"/><use transform="matrix(0.04938271604938272,0,0,0.04938271604938272,82.71604938271605,0)" xlink:href="#ar"/><use transform="matrix(0.04938271604938272,0,0,0.04938271604938272,87.65432098765433,0)" xlink:href="#ak"/><use transform="matrix(0.04938271604938272,0,0,0.04938271604938272,97.53086419753087,0)" xlink:href="#al"/></g><path d="M185-189c-5-48-123-54-124 2 14 75 158 14 163 119 3 78-121 87-175 55-17-10-28-26-33-46l33-7c5 56 141 63 141-1 0-78-155-14-162-118-5-82 145-84 179-34 5 7 8 16 11 25" id="as"/><path d="M24-231v-30h32v30H24zM24 0v-190h32V0H24" id="at"/><path d="M210-169c-67 3-38 105-44 169h-31v-121c0-29-5-50-35-48C34-165 62-65 56 0H25l-1-190h30c1 10-1 24 2 32 10-44 99-50 107 0 11-21 27-35 58-36 85-2 47 119 55 194h-31v-121c0-29-5-49-35-48" id="au"/><path d="M84 4C-5 8 30-112 23-190h32v120c0 31 7 50 39 49 72-2 45-101 50-169h31l1 190h-30c-1-10 1-25-2-33-11 22-28 36-60 37" id="av"/><path d="M24 0v-261h32V0H24" id="aw"/><path d="M141-36C126-15 110 5 73 4 37 3 15-17 15-53c-1-64 63-63 125-63 3-35-9-54-41-54-24 1-41 7-42 31l-33-3c5-37 33-52 76-52 45 0 72 20 72 64v82c-1 20 7 32 28 27v20c-31 9-61-2-59-35zM48-53c0 20 12 33 32 33 41-3 63-29 60-74-43 2-92-5-92 41" id="ax"/><path d="M59-47c-2 24 18 29 38 22v24C64 9 27 4 27-40v-127H5v-23h24l9-43h21v43h35v23H59v120" id="ay"/><path d="M100-194c63 0 86 42 84 106H49c0 40 14 67 53 68 26 1 43-12 49-29l28 8c-11 28-37 45-77 45C44 4 14-33 15-96c1-61 26-98 85-98zm52 81c6-60-76-77-97-28-3 7-6 17-6 28h103" id="az"/><path d="M85-194c31 0 48 13 60 33l-1-100h32l1 261h-30c-2-10 0-23-3-31C134-8 116 4 85 4 32 4 16-35 15-94c0-66 23-100 70-100zm9 24c-40 0-46 34-46 75 0 40 6 74 45 74 42 0 51-32 51-76 0-42-9-74-50-73" id="aA"/><g id="i"><use transform="matrix(0.04938271604938272,0,0,0.04938271604938272,0,0)" xlink:href="#as"/><use transform="matrix(0.04938271604938272,0,0,0.04938271604938272,11.851851851851853,0)" xlink:href="#at"/><use transform="matrix(0.04938271604938272,0,0,0.04938271604938272,15.753086419753087,0)" xlink:href="#au"/><use transform="matrix(0.04938271604938272,0,0,0.04938271604938272,30.518518518518523,0)" xlink:href="#av"/><use transform="matrix(0.04938271604938272,0,0,0.04938271604938272,40.39506172839506,0)" xlink:href="#aw"/><use transform="matrix(0.04938271604938272,0,0,0.04938271604938272,44.2962962962963,0)" xlink:href="#ax"/><use transform="matrix(0.04938271604938272,0,0,0.04938271604938272,54.17283950617284,0)" xlink:href="#ay"/><use transform="matrix(0.04938271604938272,0,0,0.04938271604938272,59.111111111111114,0)" xlink:href="#az"/><use transform="matrix(0.04938271604938272,0,0,0.04938271604938272,68.98765432098766,0)" xlink:href="#aA"/></g><path d="M177-190C167-65 218 103 67 71c-23-6-38-20-44-43l32-5c15 47 100 32 89-28v-30C133-14 115 1 83 1 29 1 15-40 15-95c0-56 16-97 71-98 29-1 48 16 59 35 1-10 0-23 2-32h30zM94-22c36 0 50-32 50-73 0-42-14-75-50-75-39 0-46 34-46 75s6 73 46 73" id="aB"/><path d="M135-143c-3-34-86-38-87 0 15 53 115 12 119 90S17 21 10-45l28-5c4 36 97 45 98 0-10-56-113-15-118-90-4-57 82-63 122-42 12 7 21 19 24 35" id="aC"/><g id="j"><use transform="matrix(0.04938271604938272,0,0,0.04938271604938272,0,0)" xlink:href="#at"/><use transform="matrix(0.04938271604938272,0,0,0.04938271604938272,3.901234567901235,0)" xlink:href="#au"/><use transform="matrix(0.04938271604938272,0,0,0.04938271604938272,18.666666666666668,0)" xlink:href="#ax"/><use transform="matrix(0.04938271604938272,0,0,0.04938271604938272,28.543209876543212,0)" xlink:href="#aB"/><use transform="matrix(0.04938271604938272,0,0,0.04938271604938272,38.41975308641976,0)" xlink:href="#az"/><use transform="matrix(0.04938271604938272,0,0,0.04938271604938272,48.296296296296305,0)" xlink:href="#aC"/></g><path d="M233-177c-1 41-23 64-60 70L243 0h-38l-65-103H63V0H30v-248c88 3 205-21 203 71zM63-129c60-2 137 13 137-47 0-61-80-42-137-45v92" id="aD"/><g id="k"><use transform="matrix(0.04938271604938272,0,0,0.04938271604938272,0,0)" xlink:href="#aD"/><use transform="matrix(0.04938271604938272,0,0,0.04938271604938272,12.790123456790125,0)" xlink:href="#az"/><use transform="matrix(0.04938271604938272,0,0,0.04938271604938272,22.66666666666667,0)" xlink:href="#ax"/><use transform="matrix(0.04938271604938272,0,0,0.04938271604938272,32.543209876543216,0)" xlink:href="#aw"/></g><path d="M30-248c118-7 216 8 213 122C240-48 200 0 122 0H30v-248zM63-27c89 8 146-16 146-99s-60-101-146-95v194" id="aE"/><path d="M96-169c-40 0-48 33-48 73s9 75 48 75c24 0 41-14 43-38l32 2c-6 37-31 61-74 61-59 0-76-41-82-99-10-93 101-131 147-64 4 7 5 14 7 22l-32 3c-4-21-16-35-41-35" id="aF"/><g id="l"><use transform="matrix(0.04938271604938272,0,0,0.04938271604938272,0,0)" xlink:href="#aE"/><use transform="matrix(0.04938271604938272,0,0,0.04938271604938272,12.790123456790125,0)" xlink:href="#az"/><use transform="matrix(0.04938271604938272,0,0,0.04938271604938272,22.66666666666667,0)" xlink:href="#ay"/><use transform="matrix(0.04938271604938272,0,0,0.04938271604938272,27.604938271604947,0)" xlink:href="#az"/><use transform="matrix(0.04938271604938272,0,0,0.04938271604938272,37.48148148148149,0)" xlink:href="#aF"/><use transform="matrix(0.04938271604938272,0,0,0.04938271604938272,46.37037037037038,0)" xlink:href="#ay"/></g><g id="m"><use transform="matrix(0.04938271604938272,0,0,0.04938271604938272,0,0)" xlink:href="#aF"/><use transform="matrix(0.04938271604938272,0,0,0.04938271604938272,8.88888888888889,0)" xlink:href="#az"/><use transform="matrix(0.04938271604938272,0,0,0.04938271604938272,18.765432098765434,0)" xlink:href="#aw"/><use transform="matrix(0.04938271604938272,0,0,0.04938271604938272,22.666666666666668,0)" xlink:href="#aw"/></g><g id="n"><use transform="matrix(0.04938271604938272,0,0,0.04938271604938272,0,0)" xlink:href="#au"/><use transform="matrix(0.04938271604938272,0,0,0.04938271604938272,14.765432098765434,0)" xlink:href="#ax"/><use transform="matrix(0.04938271604938272,0,0,0.04938271604938272,24.641975308641978,0)" xlink:href="#aC"/><use transform="matrix(0.04938271604938272,0,0,0.04938271604938272,33.53086419753087,0)" xlink:href="#aC"/></g><path d="M33 0v-248h34V0H33" id="aG"/><path d="M117-194c89-4 53 116 60 194h-32v-121c0-31-8-49-39-48C34-167 62-67 57 0H25l-1-190h30c1 10-1 24 2 32 11-22 29-35 61-36" id="aH"/><path d="M101-234c-31-9-42 10-38 44h38v23H63V0H32v-167H5v-23h27c-7-52 17-82 69-68v24" id="aI"/><path d="M179-190L93 31C79 59 56 82 12 73V49c39 6 53-20 64-50L1-190h34L92-34l54-156h33" id="aJ"/><g id="o"><use transform="matrix(0.04938271604938272,0,0,0.04938271604938272,0,0)" xlink:href="#aG"/><use transform="matrix(0.04938271604938272,0,0,0.04938271604938272,4.938271604938272,0)" xlink:href="#aA"/><use transform="matrix(0.04938271604938272,0,0,0.04938271604938272,14.814814814814817,0)" xlink:href="#az"/><use transform="matrix(0.04938271604938272,0,0,0.04938271604938272,24.69135802469136,0)" xlink:href="#aH"/><use transform="matrix(0.04938271604938272,0,0,0.04938271604938272,34.567901234567906,0)" xlink:href="#ay"/><use transform="matrix(0.04938271604938272,0,0,0.04938271604938272,39.50617283950618,0)" xlink:href="#at"/><use transform="matrix(0.04938271604938272,0,0,0.04938271604938272,43.40740740740741,0)" xlink:href="#aI"/><use transform="matrix(0.04938271604938272,0,0,0.04938271604938272,48.345679012345684,0)" xlink:href="#aJ"/></g><g id="p"><use transform="matrix(0.04938271604938272,0,0,0.04938271604938272,0,0)" xlink:href="#aF"/><use transform="matrix(0.04938271604938272,0,0,0.04938271604938272,8.88888888888889,0)" xlink:href="#az"/><use transform="matrix(0.04938271604938272,0,0,0.04938271604938272,18.765432098765434,0)" xlink:href="#aw"/><use transform="matrix(0.04938271604938272,0,0,0.04938271604938272,22.666666666666668,0)" xlink:href="#aw"/></g><path d="M114-163C36-179 61-72 57 0H25l-1-190h30c1 12-1 29 2 39 6-27 23-49 58-41v29" id="aK"/><g id="r"><use transform="matrix(0.04938271604938272,0,0,0.04938271604938272,0,0)" xlink:href="#as"/><use transform="matrix(0.04938271604938272,0,0,0.04938271604938272,11.851851851851853,0)" xlink:href="#ay"/><use transform="matrix(0.04938271604938272,0,0,0.04938271604938272,16.790123456790127,0)" xlink:href="#ax"/><use transform="matrix(0.04938271604938272,0,0,0.04938271604938272,26.666666666666668,0)" xlink:href="#aK"/><use transform="matrix(0.04938271604938272,0,0,0.04938271604938272,32.543209876543216,0)" xlink:href="#ay"/></g><path d="M30 0v-248h187v28H63v79h144v27H63v87h162V0H30" id="aL"/><path d="M141 0L90-78 38 0H4l68-98-65-92h35l48 74 47-74h35l-64 92 68 98h-35" id="aM"/><g id="s"><use transform="matrix(0.04938271604938272,0,0,0.04938271604938272,0,0)" xlink:href="#aL"/><use transform="matrix(0.04938271604938272,0,0,0.04938271604938272,11.851851851851853,0)" xlink:href="#aM"/><use transform="matrix(0.04938271604938272,0,0,0.04938271604938272,20.74074074074074,0)" xlink:href="#ay"/><use transform="matrix(0.04938271604938272,0,0,0.04938271604938272,25.679012345679016,0)" xlink:href="#aK"/><use transform="matrix(0.04938271604938272,0,0,0.04938271604938272,31.555555555555557,0)" xlink:href="#ax"/><use transform="matrix(0.04938271604938272,0,0,0.04938271604938272,41.4320987654321,0)" xlink:href="#aF"/><use transform="matrix(0.04938271604938272,0,0,0.04938271604938272,50.32098765432099,0)" xlink:href="#ay"/></g><g id="t"><use transform="matrix(0.04938271604938272,0,0,0.04938271604938272,0,0)" xlink:href="#aI"/><use transform="matrix(0.04938271604938272,0,0,0.04938271604938272,4.938271604938272,0)" xlink:href="#az"/><use transform="matrix(0.04938271604938272,0,0,0.04938271604938272,14.814814814814817,0)" xlink:href="#ax"/><use transform="matrix(0.04938271604938272,0,0,0.04938271604938272,24.69135802469136,0)" xlink:href="#ay"/><use transform="matrix(0.04938271604938272,0,0,0.04938271604938272,29.629629629629633,0)" xlink:href="#av"/><use transform="matrix(0.04938271604938272,0,0,0.04938271604938272,39.50617283950618,0)" xlink:href="#aK"/><use transform="matrix(0.04938271604938272,0,0,0.04938271604938272,45.38271604938272,0)" xlink:href="#az"/></g><g id="u"><use transform="matrix(0.04938271604938272,0,0,0.04938271604938272,0,0)" xlink:href="#aL"/><use transform="matrix(0.04938271604938272,0,0,0.04938271604938272,11.851851851851853,0)" xlink:href="#aH"/><use transform="matrix(0.04938271604938272,0,0,0.04938271604938272,21.7283950617284,0)" xlink:href="#aA"/></g><path d="M143 4C61 4 22-44 18-125c-5-107 100-154 193-111 17 8 29 25 37 43l-32 9c-13-25-37-40-76-40-61 0-88 39-88 99 0 61 29 100 91 101 35 0 62-11 79-27v-45h-74v-28h105v86C228-13 192 4 143 4" id="aN"/><path d="M197 0v-115H63V0H30v-248h33v105h134v-105h34V0h-34" id="aO"/><path d="M115-194c53 0 69 39 70 98 0 66-23 100-70 100C84 3 66-7 56-30L54 0H23l1-261h32v101c10-23 28-34 59-34zm-8 174c40 0 45-34 45-75 0-40-5-75-45-74-42 0-51 32-51 76 0 43 10 73 51 73" id="aP"/><g id="v"><use transform="matrix(0.04938271604938272,0,0,0.04938271604938272,0,0)" xlink:href="#aN"/><use transform="matrix(0.04938271604938272,0,0,0.04938271604938272,13.827160493827162,0)" xlink:href="#at"/><use transform="matrix(0.04938271604938272,0,0,0.04938271604938272,17.728395061728396,0)" xlink:href="#ay"/><use transform="matrix(0.04938271604938272,0,0,0.04938271604938272,22.666666666666668,0)" xlink:href="#aO"/><use transform="matrix(0.04938271604938272,0,0,0.04938271604938272,35.45679012345679,0)" xlink:href="#av"/><use transform="matrix(0.04938271604938272,0,0,0.04938271604938272,45.333333333333336,0)" xlink:href="#aP"/></g><path d="M30-248c87 1 191-15 191 75 0 78-77 80-158 76V0H30v-248zm33 125c57 0 124 11 124-50 0-59-68-47-124-48v98" id="aQ"/><path d="M115-194c55 1 70 41 70 98S169 2 115 4C84 4 66-9 55-30l1 105H24l-1-265h31l2 30c10-21 28-34 59-34zm-8 174c40 0 45-34 45-75s-6-73-45-74c-42 0-51 32-51 76 0 43 10 73 51 73" id="aR"/><path d="M100-194c62-1 85 37 85 99 1 63-27 99-86 99S16-35 15-95c0-66 28-99 85-99zM99-20c44 1 53-31 53-75 0-43-8-75-51-75s-53 32-53 75 10 74 51 75" id="aS"/><g id="w"><use transform="matrix(0.04938271604938272,0,0,0.04938271604938272,0,0)" xlink:href="#aQ"/><use transform="matrix(0.04938271604938272,0,0,0.04938271604938272,11.851851851851853,0)" xlink:href="#aK"/><use transform="matrix(0.04938271604938272,0,0,0.04938271604938272,17.728395061728396,0)" xlink:href="#az"/><use transform="matrix(0.04938271604938272,0,0,0.04938271604938272,27.60493827160494,0)" xlink:href="#aR"/><use transform="matrix(0.04938271604938272,0,0,0.04938271604938272,37.48148148148148,0)" xlink:href="#aK"/><use transform="matrix(0.04938271604938272,0,0,0.04938271604938272,43.358024691358025,0)" xlink:href="#aS"/><use transform="matrix(0.04938271604938272,0,0,0.04938271604938272,53.23456790123457,0)" xlink:href="#aF"/><use transform="matrix(0.04938271604938272,0,0,0.04938271604938272,62.12345679012345,0)" xlink:href="#az"/><use transform="matrix(0.04938271604938272,0,0,0.04938271604938272,72,0)" xlink:href="#aC"/><use transform="matrix(0.04938271604938272,0,0,0.04938271604938272,80.88888888888889,0)" xlink:href="#aC"/></g><path d="M212-179c-10-28-35-45-73-45-59 0-87 40-87 99 0 60 29 101 89 101 43 0 62-24 78-52l27 14C228-24 195 4 139 4 59 4 22-46 18-125c-6-104 99-153 187-111 19 9 31 26 39 46" id="aT"/><path d="M106-169C34-169 62-67 57 0H25v-261h32l-1 103c12-21 28-36 61-36 89 0 53 116 60 194h-32v-121c2-32-8-49-39-48" id="aU"/><path d="M143 0L79-87 56-68V0H24v-261h32v163l83-92h37l-77 82L181 0h-38" id="aV"/><g id="x"><use transform="matrix(0.04938271604938272,0,0,0.04938271604938272,0,0)" xlink:href="#aT"/><use transform="matrix(0.04938271604938272,0,0,0.04938271604938272,12.790123456790125,0)" xlink:href="#aU"/><use transform="matrix(0.04938271604938272,0,0,0.04938271604938272,22.66666666666667,0)" xlink:href="#az"/><use transform="matrix(0.04938271604938272,0,0,0.04938271604938272,32.543209876543216,0)" xlink:href="#aF"/><use transform="matrix(0.04938271604938272,0,0,0.04938271604938272,41.4320987654321,0)" xlink:href="#aV"/></g><g id="y"><use transform="matrix(0.04938271604938272,0,0,0.04938271604938272,0,0)" xlink:href="#ax"/><use transform="matrix(0.04938271604938272,0,0,0.04938271604938272,9.876543209876544,0)" xlink:href="#aF"/><use transform="matrix(0.04938271604938272,0,0,0.04938271604938272,18.765432098765434,0)" xlink:href="#aF"/><use transform="matrix(0.04938271604938272,0,0,0.04938271604938272,27.654320987654323,0)" xlink:href="#av"/><use transform="matrix(0.04938271604938272,0,0,0.04938271604938272,37.53086419753087,0)" xlink:href="#aK"/><use transform="matrix(0.04938271604938272,0,0,0.04938271604938272,43.40740740740741,0)" xlink:href="#ax"/><use transform="matrix(0.04938271604938272,0,0,0.04938271604938272,53.283950617283956,0)" xlink:href="#aF"/><use transform="matrix(0.04938271604938272,0,0,0.04938271604938272,62.17283950617284,0)" xlink:href="#aJ"/></g><g id="A"><use transform="matrix(0.04938271604938272,0,0,0.04938271604938272,0,0)" xlink:href="#aT"/><use transform="matrix(0.04938271604938272,0,0,0.04938271604938272,12.790123456790125,0)" xlink:href="#av"/><use transform="matrix(0.04938271604938272,0,0,0.04938271604938272,22.66666666666667,0)" xlink:href="#aK"/><use transform="matrix(0.04938271604938272,0,0,0.04938271604938272,28.54320987654322,0)" xlink:href="#ax"/><use transform="matrix(0.04938271604938272,0,0,0.04938271604938272,38.41975308641976,0)" xlink:href="#ay"/><use transform="matrix(0.04938271604938272,0,0,0.04938271604938272,43.35802469135803,0)" xlink:href="#az"/><use transform="matrix(0.04938271604938272,0,0,0.04938271604938272,53.23456790123457,0)" xlink:href="#aA"/></g><g id="B"><use transform="matrix(0.04938271604938272,0,0,0.04938271604938272,0,0)" xlink:href="#at"/><use transform="matrix(0.04938271604938272,0,0,0.04938271604938272,3.901234567901235,0)" xlink:href="#au"/><use transform="matrix(0.04938271604938272,0,0,0.04938271604938272,18.666666666666668,0)" xlink:href="#ax"/><use transform="matrix(0.04938271604938272,0,0,0.04938271604938272,28.543209876543212,0)" xlink:href="#aB"/><use transform="matrix(0.04938271604938272,0,0,0.04938271604938272,38.41975308641976,0)" xlink:href="#az"/><use transform="matrix(0.04938271604938272,0,0,0.04938271604938272,48.296296296296305,0)" xlink:href="#aC"/></g><g id="C"><use transform="matrix(0.04938271604938272,0,0,0.04938271604938272,0,0)" xlink:href="#aD"/><use transform="matrix(0.04938271604938272,0,0,0.04938271604938272,12.790123456790125,0)" xlink:href="#az"/><use transform="matrix(0.04938271604938272,0,0,0.04938271604938272,22.66666666666667,0)" xlink:href="#aR"/><use transform="matrix(0.04938271604938272,0,0,0.04938271604938272,32.543209876543216,0)" xlink:href="#aS"/><use transform="matrix(0.04938271604938272,0,0,0.04938271604938272,42.41975308641976,0)" xlink:href="#aK"/><use transform="matrix(0.04938271604938272,0,0,0.04938271604938272,48.296296296296305,0)" xlink:href="#ay"/><use transform="matrix(0.04938271604938272,0,0,0.04938271604938272,53.23456790123457,0)" xlink:href="#aC"/></g><g id="D"><use transform="matrix(0.04938271604938272,0,0,0.04938271604938272,0,0)" xlink:href="#aQ"/><use transform="matrix(0.04938271604938272,0,0,0.04938271604938272,11.851851851851853,0)" xlink:href="#av"/><use transform="matrix(0.04938271604938272,0,0,0.04938271604938272,21.7283950617284,0)" xlink:href="#aP"/><use transform="matrix(0.04938271604938272,0,0,0.04938271604938272,31.60493827160494,0)" xlink:href="#aw"/><use transform="matrix(0.04938271604938272,0,0,0.04938271604938272,35.50617283950618,0)" xlink:href="#at"/><use transform="matrix(0.04938271604938272,0,0,0.04938271604938272,39.40740740740741,0)" xlink:href="#aF"/></g><g id="E"><use transform="matrix(0.04938271604938272,0,0,0.04938271604938272,0,0)" xlink:href="#aQ"/><use transform="matrix(0.04938271604938272,0,0,0.04938271604938272,11.851851851851853,0)" xlink:href="#aU"/><use transform="matrix(0.04938271604938272,0,0,0.04938271604938272,21.7283950617284,0)" xlink:href="#aJ"/><use transform="matrix(0.04938271604938272,0,0,0.04938271604938272,30.617283950617285,0)" xlink:href="#aC"/><use transform="matrix(0.04938271604938272,0,0,0.04938271604938272,39.50617283950618,0)" xlink:href="#at"/><use transform="matrix(0.04938271604938272,0,0,0.04938271604938272,43.40740740740741,0)" xlink:href="#aF"/><use transform="matrix(0.04938271604938272,0,0,0.04938271604938272,52.2962962962963,0)" xlink:href="#aC"/></g><g id="F"><use transform="matrix(0.04938271604938272,0,0,0.04938271604938272,0,0)" xlink:href="#aQ"/><use transform="matrix(0.04938271604938272,0,0,0.04938271604938272,11.851851851851853,0)" xlink:href="#ax"/><use transform="matrix(0.04938271604938272,0,0,0.04938271604938272,21.7283950617284,0)" xlink:href="#aR"/><use transform="matrix(0.04938271604938272,0,0,0.04938271604938272,31.60493827160494,0)" xlink:href="#az"/><use transform="matrix(0.04938271604938272,0,0,0.04938271604938272,41.48148148148149,0)" xlink:href="#aK"/><use transform="matrix(0.04938271604938272,0,0,0.04938271604938272,47.35802469135803,0)" xlink:href="#aC"/></g><g id="G"><use transform="matrix(0.04938271604938272,0,0,0.04938271604938272,0,0)" xlink:href="#aE"/><use transform="matrix(0.04938271604938272,0,0,0.04938271604938272,12.790123456790125,0)" xlink:href="#aS"/><use transform="matrix(0.04938271604938272,0,0,0.04938271604938272,22.66666666666667,0)" xlink:href="#aF"/><use transform="matrix(0.04938271604938272,0,0,0.04938271604938272,31.555555555555557,0)" xlink:href="#av"/><use transform="matrix(0.04938271604938272,0,0,0.04938271604938272,41.4320987654321,0)" xlink:href="#au"/><use transform="matrix(0.04938271604938272,0,0,0.04938271604938272,56.19753086419754,0)" xlink:href="#az"/><use transform="matrix(0.04938271604938272,0,0,0.04938271604938272,66.07407407407408,0)" xlink:href="#aH"/><use transform="matrix(0.04938271604938272,0,0,0.04938271604938272,75.95061728395062,0)" xlink:href="#ay"/><use transform="matrix(0.04938271604938272,0,0,0.04938271604938272,80.88888888888889,0)" xlink:href="#aC"/></g><path d="M137 0h-34L2-248h35l83 218 83-218h36" id="aW"/><g id="H"><use transform="matrix(0.04938271604938272,0,0,0.04938271604938272,0,0)" xlink:href="#aW"/><use transform="matrix(0.04938271604938272,0,0,0.04938271604938272,11.506172839506174,0)" xlink:href="#at"/><use transform="matrix(0.04938271604938272,0,0,0.04938271604938272,15.407407407407408,0)" xlink:href="#aA"/><use transform="matrix(0.04938271604938272,0,0,0.04938271604938272,25.283950617283953,0)" xlink:href="#az"/><use transform="matrix(0.04938271604938272,0,0,0.04938271604938272,35.160493827160494,0)" xlink:href="#aS"/><use transform="matrix(0.04938271604938272,0,0,0.04938271604938272,45.03703703703704,0)" xlink:href="#aC"/></g><path d="M160-131c35 5 61 23 61 61C221 17 115-2 30 0v-248c76 3 177-17 177 60 0 33-19 50-47 57zm-97-11c50-1 110 9 110-42 0-47-63-36-110-37v79zm0 115c55-2 124 14 124-45 0-56-70-42-124-44v89" id="aX"/><g id="I"><use transform="matrix(0.04938271604938272,0,0,0.04938271604938272,0,0)" xlink:href="#aX"/><use transform="matrix(0.04938271604938272,0,0,0.04938271604938272,11.851851851851853,0)" xlink:href="#aK"/><use transform="matrix(0.04938271604938272,0,0,0.04938271604938272,17.728395061728396,0)" xlink:href="#ax"/><use transform="matrix(0.04938271604938272,0,0,0.04938271604938272,27.60493827160494,0)" xlink:href="#at"/><use transform="matrix(0.04938271604938272,0,0,0.04938271604938272,31.506172839506174,0)" xlink:href="#aH"/><use transform="matrix(0.04938271604938272,0,0,0.04938271604938272,41.38271604938272,0)" xlink:href="#aC"/><use transform="matrix(0.04938271604938272,0,0,0.04938271604938272,50.27160493827161,0)" xlink:href="#ay"/><use transform="matrix(0.04938271604938272,0,0,0.04938271604938272,55.20987654320988,0)" xlink:href="#aS"/><use transform="matrix(0.04938271604938272,0,0,0.04938271604938272,65.08641975308643,0)" xlink:href="#aK"/><use transform="matrix(0.04938271604938272,0,0,0.04938271604938272,70.96296296296298,0)" xlink:href="#au"/></g><g id="J"><use transform="matrix(0.04938271604938272,0,0,0.04938271604938272,0,0)" xlink:href="#aE"/><use transform="matrix(0.04938271604938272,0,0,0.04938271604938272,12.790123456790125,0)" xlink:href="#at"/><use transform="matrix(0.04938271604938272,0,0,0.04938271604938272,16.69135802469136,0)" xlink:href="#ax"/><use transform="matrix(0.04938271604938272,0,0,0.04938271604938272,26.567901234567902,0)" xlink:href="#aB"/><use transform="matrix(0.04938271604938272,0,0,0.04938271604938272,36.44444444444445,0)" xlink:href="#aK"/><use transform="matrix(0.04938271604938272,0,0,0.04938271604938272,42.320987654320994,0)" xlink:href="#ax"/><use transform="matrix(0.04938271604938272,0,0,0.04938271604938272,52.19753086419754,0)" xlink:href="#au"/><use transform="matrix(0.04938271604938272,0,0,0.04938271604938272,66.96296296296298,0)" xlink:href="#aC"/></g><path d="M266 0h-40l-56-210L115 0H75L2-248h35L96-30l15-64 43-154h32l59 218 59-218h35" id="aY"/><g id="K"><use transform="matrix(0.04938271604938272,0,0,0.04938271604938272,0,0)" xlink:href="#aY"/><use transform="matrix(0.04938271604938272,0,0,0.04938271604938272,16.39506172839506,0)" xlink:href="#az"/><use transform="matrix(0.04938271604938272,0,0,0.04938271604938272,26.271604938271608,0)" xlink:href="#aP"/><use transform="matrix(0.04938271604938272,0,0,0.04938271604938272,36.14814814814815,0)" xlink:href="#aC"/><use transform="matrix(0.04938271604938272,0,0,0.04938271604938272,45.03703703703704,0)" xlink:href="#at"/><use transform="matrix(0.04938271604938272,0,0,0.04938271604938272,48.93827160493827,0)" xlink:href="#ay"/><use transform="matrix(0.04938271604938272,0,0,0.04938271604938272,53.876543209876544,0)" xlink:href="#az"/></g><path fill="#333" d="M169-182c-1-43-94-46-97-3 18 66 151 10 154 114 3 95-165 93-204 36-6-8-10-19-12-30l50-8c3 46 112 56 116 5-17-69-150-10-154-114-4-87 153-88 188-35 5 8 8 18 10 28" id="aZ"/><path fill="#333" d="M115-3C79 11 28 4 28-45v-112H4v-33h27l15-45h31v45h36v33H77v99c-1 23 16 31 38 25v30" id="ba"/><path fill="#333" d="M133-34C117-15 103 5 69 4 32 3 11-16 11-54c-1-60 55-63 116-61 1-26-3-47-28-47-18 1-26 9-28 27l-52-2c7-38 36-58 82-57s74 22 75 68l1 82c-1 14 12 18 25 15v27c-30 8-71 5-69-32zm-48 3c29 0 43-24 42-57-32 0-66-3-65 30 0 17 8 27 23 27" id="bb"/><path fill="#333" d="M195-6C206 82 75 100 31 46c-4-6-6-13-8-21l49-6c3 16 16 24 34 25 40 0 42-37 40-79-11 22-30 35-61 35-53 0-70-43-70-97 0-56 18-96 73-97 30 0 46 14 59 34l2-30h47zm-90-29c32 0 41-27 41-63 0-35-9-62-40-62-32 0-39 29-40 63 0 36 9 62 39 62" id="bc"/><path fill="#333" d="M185-48c-13 30-37 53-82 52C43 2 14-33 14-96s30-98 90-98c62 0 83 45 84 108H66c0 31 8 55 39 56 18 0 30-7 34-22zm-45-69c5-46-57-63-70-21-2 6-4 13-4 21h74" id="bd"/><g id="L"><use transform="matrix(0.05555555555555555,0,0,0.05555555555555555,0,0)" xlink:href="#aZ"/><use transform="matrix(0.05555555555555555,0,0,0.05555555555555555,13.333333333333332,0)" xlink:href="#ba"/><use transform="matrix(0.05555555555555555,0,0,0.05555555555555555,19.944444444444443,0)" xlink:href="#bb"/><use transform="matrix(0.05555555555555555,0,0,0.05555555555555555,31.055555555555554,0)" xlink:href="#bc"/><use transform="matrix(0.05555555555555555,0,0,0.05555555555555555,43.22222222222222,0)" xlink:href="#bd"/></g><path fill="#333" d="M24 0v-248h52V0H24" id="be"/><path fill="#333" d="M35-132v-50h50v50H35zM35 0v-49h50V0H35" id="bf"/><g id="M"><use transform="matrix(0.05555555555555555,0,0,0.05555555555555555,0,0)" xlink:href="#be"/><use transform="matrix(0.05555555555555555,0,0,0.05555555555555555,5.555555555555555,0)" xlink:href="#bf"/></g><path fill="#333" d="M24-248c120-7 223 5 221 122C244-46 201 0 124 0H24v-248zM76-40c74 7 117-18 117-86 0-67-45-88-117-82v168" id="bg"/><g id="N"><use transform="matrix(0.05555555555555555,0,0,0.05555555555555555,0,0)" xlink:href="#bg"/><use transform="matrix(0.05555555555555555,0,0,0.05555555555555555,14.388888888888888,0)" xlink:href="#bb"/><use transform="matrix(0.05555555555555555,0,0,0.05555555555555555,25.5,0)" xlink:href="#ba"/><use transform="matrix(0.05555555555555555,0,0,0.05555555555555555,32.111111111111114,0)" xlink:href="#bb"/></g><path fill="#333" d="M135-194c87-1 58 113 63 194h-50c-7-57 23-157-34-157-59 0-34 97-39 157H25l-1-190h47c2 12-1 28 3 38 12-26 28-41 61-42" id="bh"/><path fill="#333" d="M135-194c53 0 70 44 70 98 0 56-19 98-73 100-31 1-45-17-59-34 3 33 2 69 2 105H25l-1-265h48c2 10 0 23 3 31 11-24 29-35 60-35zM114-30c33 0 39-31 40-66 0-38-9-64-40-64-56 0-55 130 0 130" id="bi"/><path fill="#333" d="M85 4C-2 5 27-109 22-190h50c7 57-23 150 33 157 60-5 35-97 40-157h50l1 190h-47c-2-12 1-28-3-38-12 25-28 42-61 42" id="bj"/><g id="O"><use transform="matrix(0.05555555555555555,0,0,0.05555555555555555,0,0)" xlink:href="#be"/><use transform="matrix(0.05555555555555555,0,0,0.05555555555555555,5.555555555555555,0)" xlink:href="#bh"/><use transform="matrix(0.05555555555555555,0,0,0.05555555555555555,17.72222222222222,0)" xlink:href="#bi"/><use transform="matrix(0.05555555555555555,0,0,0.05555555555555555,29.888888888888886,0)" xlink:href="#bj"/><use transform="matrix(0.05555555555555555,0,0,0.05555555555555555,42.05555555555555,0)" xlink:href="#ba"/></g><g id="P"><use transform="matrix(0.05555555555555555,0,0,0.05555555555555555,0,0)" xlink:href="#be"/><use transform="matrix(0.05555555555555555,0,0,0.05555555555555555,5.555555555555555,0)" xlink:href="#be"/><use transform="matrix(0.05555555555555555,0,0,0.05555555555555555,11.11111111111111,0)" xlink:href="#bf"/></g><path fill="#333" d="M24-248c93 1 206-16 204 79-1 75-69 88-152 82V0H24v-248zm52 121c47 0 100 7 100-41 0-47-54-39-100-39v80" id="bk"/><path fill="#333" d="M135-150c-39-12-60 13-60 57V0H25l-1-190h47c2 13-1 29 3 40 6-28 27-53 61-41v41" id="bl"/><path fill="#333" d="M110-194c64 0 96 36 96 99 0 64-35 99-97 99-61 0-95-36-95-99 0-62 34-99 96-99zm-1 164c35 0 45-28 45-65 0-40-10-65-43-65-34 0-45 26-45 65 0 36 10 65 43 65" id="bm"/><path fill="#333" d="M190-63c-7 42-38 67-86 67-59 0-84-38-90-98-12-110 154-137 174-36l-49 2c-2-19-15-32-35-32-30 0-35 28-38 64-6 74 65 87 74 30" id="bn"/><path fill="#333" d="M137-138c1-29-70-34-71-4 15 46 118 7 119 86 1 83-164 76-172 9l43-7c4 19 20 25 44 25 33 8 57-30 24-41C81-84 22-81 20-136c-2-80 154-74 161-7" id="bo"/><path fill="#333" d="M25-224v-37h50v37H25zM25 0v-190h50V0H25" id="bp"/><g id="Q"><use transform="matrix(0.05555555555555555,0,0,0.05555555555555555,0,0)" xlink:href="#bk"/><use transform="matrix(0.05555555555555555,0,0,0.05555555555555555,13.333333333333332,0)" xlink:href="#bl"/><use transform="matrix(0.05555555555555555,0,0,0.05555555555555555,21.11111111111111,0)" xlink:href="#bm"/><use transform="matrix(0.05555555555555555,0,0,0.05555555555555555,33.27777777777778,0)" xlink:href="#bn"/><use transform="matrix(0.05555555555555555,0,0,0.05555555555555555,44.388888888888886,0)" xlink:href="#bd"/><use transform="matrix(0.05555555555555555,0,0,0.05555555555555555,55.5,0)" xlink:href="#bo"/><use transform="matrix(0.05555555555555555,0,0,0.05555555555555555,66.61111111111111,0)" xlink:href="#bo"/><use transform="matrix(0.05555555555555555,0,0,0.05555555555555555,77.72222222222223,0)" xlink:href="#bp"/><use transform="matrix(0.05555555555555555,0,0,0.05555555555555555,83.27777777777779,0)" xlink:href="#bh"/><use transform="matrix(0.05555555555555555,0,0,0.05555555555555555,95.44444444444446,0)" xlink:href="#bc"/></g><g id="R"><use transform="matrix(0.05555555555555555,0,0,0.05555555555555555,0,0)" xlink:href="#be"/><use transform="matrix(0.05555555555555555,0,0,0.05555555555555555,5.555555555555555,0)" xlink:href="#be"/><use transform="matrix(0.05555555555555555,0,0,0.05555555555555555,11.11111111111111,0)" xlink:href="#be"/><use transform="matrix(0.05555555555555555,0,0,0.05555555555555555,16.666666666666664,0)" xlink:href="#bf"/></g><path fill="#333" d="M199 0l-22-63H83L61 0H9l90-248h61L250 0h-51zm-33-102l-36-108c-10 38-24 72-36 108h72" id="bq"/><path fill="#333" d="M25 0v-261h50V0H25" id="br"/><path fill="#333" d="M123 10C108 53 80 86 19 72V37c35 8 53-11 59-39L3-190h52l48 148c12-52 28-100 44-148h51" id="bs"/><g id="S"><use transform="matrix(0.05555555555555555,0,0,0.05555555555555555,0,0)" xlink:href="#bq"/><use transform="matrix(0.05555555555555555,0,0,0.05555555555555555,14.388888888888888,0)" xlink:href="#bh"/><use transform="matrix(0.05555555555555555,0,0,0.05555555555555555,26.555555555555554,0)" xlink:href="#bb"/><use transform="matrix(0.05555555555555555,0,0,0.05555555555555555,37.666666666666664,0)" xlink:href="#br"/><use transform="matrix(0.05555555555555555,0,0,0.05555555555555555,43.22222222222222,0)" xlink:href="#bs"/><use transform="matrix(0.05555555555555555,0,0,0.05555555555555555,54.33333333333333,0)" xlink:href="#bo"/><use transform="matrix(0.05555555555555555,0,0,0.05555555555555555,65.44444444444444,0)" xlink:href="#bp"/><use transform="matrix(0.05555555555555555,0,0,0.05555555555555555,71,0)" xlink:href="#bo"/></g><g id="T"><use transform="matrix(0.04938271604938272,0,0,0.04938271604938272,0,0)" xlink:href="#aT"/><use transform="matrix(0.04938271604938272,0,0,0.04938271604938272,12.790123456790125,0)" xlink:href="#aS"/><use transform="matrix(0.04938271604938272,0,0,0.04938271604938272,22.66666666666667,0)" xlink:href="#au"/><use transform="matrix(0.04938271604938272,0,0,0.04938271604938272,37.4320987654321,0)" xlink:href="#aR"/><use transform="matrix(0.04938271604938272,0,0,0.04938271604938272,47.308641975308646,0)" xlink:href="#av"/><use transform="matrix(0.04938271604938272,0,0,0.04938271604938272,57.18518518518519,0)" xlink:href="#ay"/><use transform="matrix(0.04938271604938272,0,0,0.04938271604938272,62.12345679012346,0)" xlink:href="#az"/><use transform="matrix(0.04938271604938272,0,0,0.04938271604938272,72,0)" xlink:href="#aK"/></g><path d="M108 0H70L1-190h34L89-25l56-165h34" id="bt"/><g id="U"><use transform="matrix(0.04938271604938272,0,0,0.04938271604938272,0,0)" xlink:href="#bt"/><use transform="matrix(0.04938271604938272,0,0,0.04938271604938272,8.88888888888889,0)" xlink:href="#at"/><use transform="matrix(0.04938271604938272,0,0,0.04938271604938272,12.790123456790125,0)" xlink:href="#aC"/><use transform="matrix(0.04938271604938272,0,0,0.04938271604938272,21.679012345679013,0)" xlink:href="#at"/><use transform="matrix(0.04938271604938272,0,0,0.04938271604938272,25.58024691358025,0)" xlink:href="#aS"/><use transform="matrix(0.04938271604938272,0,0,0.04938271604938272,35.45679012345679,0)" xlink:href="#aH"/></g><path d="M16-82v-28h88v28H16" id="bu"/><g id="V"><use transform="matrix(0.04938271604938272,0,0,0.04938271604938272,0,0)" xlink:href="#aT"/><use transform="matrix(0.04938271604938272,0,0,0.04938271604938272,12.790123456790125,0)" xlink:href="#aJ"/><use transform="matrix(0.04938271604938272,0,0,0.04938271604938272,21.679012345679013,0)" xlink:href="#ay"/><use transform="matrix(0.04938271604938272,0,0,0.04938271604938272,26.617283950617285,0)" xlink:href="#aS"/><use transform="matrix(0.04938271604938272,0,0,0.04938271604938272,36.49382716049383,0)" xlink:href="#bu"/></g><g id="W"><use transform="matrix(0.04938271604938272,0,0,0.04938271604938272,0,0)" xlink:href="#aR"/><use transform="matrix(0.04938271604938272,0,0,0.04938271604938272,9.876543209876544,0)" xlink:href="#ax"/><use transform="matrix(0.04938271604938272,0,0,0.04938271604938272,19.75308641975309,0)" xlink:href="#ay"/><use transform="matrix(0.04938271604938272,0,0,0.04938271604938272,24.69135802469136,0)" xlink:href="#aU"/><use transform="matrix(0.04938271604938272,0,0,0.04938271604938272,34.567901234567906,0)" xlink:href="#aS"/><use transform="matrix(0.04938271604938272,0,0,0.04938271604938272,44.44444444444445,0)" xlink:href="#aw"/><use transform="matrix(0.04938271604938272,0,0,0.04938271604938272,48.345679012345684,0)" xlink:href="#aS"/><use transform="matrix(0.04938271604938272,0,0,0.04938271604938272,58.22222222222223,0)" xlink:href="#aB"/><use transform="matrix(0.04938271604938272,0,0,0.04938271604938272,68.09876543209877,0)" xlink:href="#aJ"/></g></defs></g></svg>